<svg width="1440" height="1024" viewBox="0 0 1440 1024" fill="none" xmlns="http://www.w3.org/2000/svg">
<g clip-path="url(#clip0_2330_2)">
<rect width="1440" height="1024" fill="white"/>
<rect width="1440" height="136" fill="#2473CF"/>
<rect width="277" height="1024" fill="#35393D"/>
<path d="M51.4205 206H46.2642V191.455H51.4631C52.9261 191.455 54.1856 191.746 55.2415 192.328C56.2973 192.906 57.1094 193.737 57.6776 194.821C58.2505 195.905 58.5369 197.203 58.5369 198.713C58.5369 200.228 58.2505 201.53 57.6776 202.619C57.1094 203.708 56.2926 204.544 55.2273 205.126C54.1667 205.709 52.8977 206 51.4205 206ZM49.3395 203.365H51.2926C52.2017 203.365 52.9664 203.204 53.5866 202.882C54.2116 202.555 54.6804 202.051 54.9929 201.369C55.3101 200.683 55.4688 199.797 55.4688 198.713C55.4688 197.638 55.3101 196.76 54.9929 196.078C54.6804 195.396 54.214 194.894 53.5938 194.572C52.9735 194.25 52.2088 194.089 51.2997 194.089H49.3395V203.365ZM63.529 206.206C62.8329 206.206 62.2127 206.085 61.6682 205.844C61.1237 205.598 60.6928 205.235 60.3756 204.757C60.0631 204.274 59.9068 203.673 59.9068 202.953C59.9068 202.347 60.0181 201.838 60.2406 201.426C60.4631 201.014 60.7662 200.683 61.1497 200.432C61.5332 200.181 61.9688 199.991 62.4565 199.864C62.9489 199.736 63.465 199.646 64.0048 199.594C64.6393 199.527 65.1506 199.466 65.5389 199.409C65.9272 199.348 66.2089 199.258 66.3841 199.139C66.5593 199.021 66.6469 198.846 66.6469 198.614V198.571C66.6469 198.121 66.5048 197.773 66.2207 197.527C65.9414 197.281 65.5436 197.158 65.0275 197.158C64.483 197.158 64.0498 197.278 63.7278 197.52C63.4059 197.757 63.1928 198.055 63.0886 198.415L60.2903 198.188C60.4324 197.525 60.7117 196.952 61.1284 196.469C61.5451 195.981 62.0825 195.607 62.7406 195.347C63.4035 195.081 64.1705 194.949 65.0417 194.949C65.6478 194.949 66.2278 195.02 66.7818 195.162C67.3405 195.304 67.8353 195.524 68.2662 195.822C68.7018 196.121 69.0451 196.504 69.296 196.973C69.547 197.437 69.6724 197.993 69.6724 198.642V206H66.8031V204.487H66.7179C66.5427 204.828 66.3083 205.129 66.0148 205.389C65.7212 205.645 65.3685 205.846 64.9565 205.993C64.5446 206.135 64.0687 206.206 63.529 206.206ZM64.3954 204.118C64.8405 204.118 65.2335 204.03 65.5744 203.855C65.9153 203.675 66.1828 203.434 66.377 203.131C66.5711 202.828 66.6682 202.484 66.6682 202.101V200.943C66.5735 201.005 66.4433 201.062 66.2775 201.114C66.1166 201.161 65.9343 201.206 65.7307 201.249C65.5271 201.286 65.3235 201.322 65.1199 201.355C64.9163 201.384 64.7316 201.41 64.5659 201.433C64.2108 201.485 63.9006 201.568 63.6355 201.682C63.3703 201.795 63.1644 201.949 63.0176 202.143C62.8708 202.333 62.7974 202.57 62.7974 202.854C62.7974 203.266 62.9466 203.58 63.2449 203.798C63.5479 204.011 63.9314 204.118 64.3954 204.118ZM80.7564 198.202L77.9865 198.372C77.9392 198.135 77.8374 197.922 77.6812 197.733C77.5249 197.539 77.3189 197.385 77.0633 197.271C76.8123 197.153 76.5116 197.094 76.1613 197.094C75.6925 197.094 75.2972 197.193 74.9752 197.392C74.6532 197.586 74.4922 197.847 74.4922 198.173C74.4922 198.434 74.5964 198.654 74.8047 198.834C75.0131 199.014 75.3705 199.158 75.8772 199.267L77.8516 199.665C78.9122 199.883 79.7029 200.233 80.2238 200.716C80.7446 201.199 81.005 201.833 81.005 202.619C81.005 203.334 80.7943 203.962 80.3729 204.501C79.9562 205.041 79.3833 205.463 78.6542 205.766C77.9297 206.064 77.094 206.213 76.1471 206.213C74.7029 206.213 73.5524 205.912 72.6954 205.311C71.8431 204.705 71.3436 203.881 71.1968 202.839L74.1726 202.683C74.2626 203.124 74.4804 203.46 74.826 203.692C75.1717 203.919 75.6144 204.033 76.1542 204.033C76.6845 204.033 77.1106 203.931 77.4326 203.727C77.7593 203.519 77.925 203.251 77.9297 202.925C77.925 202.65 77.809 202.425 77.5817 202.25C77.3544 202.07 77.0041 201.933 76.5306 201.838L74.6414 201.462C73.576 201.249 72.7829 200.879 72.2621 200.354C71.746 199.828 71.488 199.158 71.488 198.344C71.488 197.643 71.6774 197.039 72.0562 196.533C72.4397 196.026 72.9771 195.635 73.6684 195.361C74.3644 195.086 75.1788 194.949 76.1115 194.949C77.4894 194.949 78.5737 195.24 79.3644 195.822C80.1598 196.405 80.6239 197.198 80.7564 198.202ZM85.5958 199.693V206H82.5702V191.455H85.5105V197.016H85.6384C85.8846 196.372 86.2823 195.867 86.8316 195.503C87.3808 195.134 88.0697 194.949 88.8983 194.949C89.6559 194.949 90.3164 195.115 90.8799 195.446C91.448 195.773 91.8884 196.244 92.2009 196.859C92.5181 197.47 92.6744 198.202 92.6696 199.054V206H89.6441V199.594C89.6488 198.921 89.4783 198.398 89.1327 198.024C88.7918 197.65 88.3136 197.463 87.698 197.463C87.2861 197.463 86.9215 197.551 86.6043 197.726C86.2918 197.901 86.0456 198.157 85.8657 198.493C85.6905 198.824 85.6005 199.224 85.5958 199.693ZM94.7675 206V191.455H97.7931V196.923H97.8854C98.018 196.63 98.2097 196.331 98.4607 196.028C98.7163 195.721 99.0478 195.465 99.455 195.261C99.8669 195.053 100.378 194.949 100.989 194.949C101.785 194.949 102.518 195.157 103.191 195.574C103.863 195.986 104.401 196.608 104.803 197.442C105.205 198.27 105.407 199.31 105.407 200.56C105.407 201.777 105.21 202.804 104.817 203.642C104.429 204.475 103.899 205.107 103.226 205.538C102.559 205.964 101.811 206.178 100.982 206.178C100.395 206.178 99.8953 206.08 99.4834 205.886C99.0762 205.692 98.7424 205.448 98.482 205.155C98.2216 204.857 98.0227 204.556 97.8854 204.253H97.7504V206H94.7675ZM97.7291 200.545C97.7291 201.194 97.8191 201.76 97.999 202.243C98.1789 202.726 98.4394 203.102 98.7803 203.372C99.1212 203.637 99.5355 203.77 100.023 203.77C100.516 203.77 100.932 203.635 101.273 203.365C101.614 203.09 101.872 202.712 102.047 202.229C102.227 201.741 102.317 201.18 102.317 200.545C102.317 199.916 102.23 199.362 102.054 198.884C101.879 198.405 101.621 198.031 101.28 197.761C100.939 197.491 100.52 197.357 100.023 197.357C99.5307 197.357 99.1141 197.487 98.7732 197.747C98.437 198.008 98.1789 198.377 97.999 198.855C97.8191 199.333 97.7291 199.897 97.7291 200.545ZM112.014 206.213C110.911 206.213 109.957 205.979 109.152 205.51C108.352 205.036 107.734 204.378 107.299 203.536C106.863 202.688 106.645 201.705 106.645 200.588C106.645 199.461 106.863 198.476 107.299 197.634C107.734 196.786 108.352 196.128 109.152 195.659C109.957 195.186 110.911 194.949 112.014 194.949C113.118 194.949 114.069 195.186 114.87 195.659C115.675 196.128 116.295 196.786 116.73 197.634C117.166 198.476 117.384 199.461 117.384 200.588C117.384 201.705 117.166 202.688 116.73 203.536C116.295 204.378 115.675 205.036 114.87 205.51C114.069 205.979 113.118 206.213 112.014 206.213ZM112.029 203.869C112.531 203.869 112.95 203.727 113.286 203.443C113.622 203.154 113.875 202.761 114.046 202.264C114.221 201.767 114.309 201.201 114.309 200.567C114.309 199.932 114.221 199.366 114.046 198.869C113.875 198.372 113.622 197.979 113.286 197.69C112.95 197.402 112.531 197.257 112.029 197.257C111.522 197.257 111.096 197.402 110.75 197.69C110.409 197.979 110.151 198.372 109.976 198.869C109.806 199.366 109.72 199.932 109.72 200.567C109.72 201.201 109.806 201.767 109.976 202.264C110.151 202.761 110.409 203.154 110.75 203.443C111.096 203.727 111.522 203.869 112.029 203.869ZM122.122 206.206C121.426 206.206 120.806 206.085 120.261 205.844C119.717 205.598 119.286 205.235 118.969 204.757C118.656 204.274 118.5 203.673 118.5 202.953C118.5 202.347 118.611 201.838 118.834 201.426C119.056 201.014 119.359 200.683 119.743 200.432C120.126 200.181 120.562 199.991 121.049 199.864C121.542 199.736 122.058 199.646 122.598 199.594C123.232 199.527 123.744 199.466 124.132 199.409C124.52 199.348 124.802 199.258 124.977 199.139C125.152 199.021 125.24 198.846 125.24 198.614V198.571C125.24 198.121 125.098 197.773 124.814 197.527C124.534 197.281 124.137 197.158 123.621 197.158C123.076 197.158 122.643 197.278 122.321 197.52C121.999 197.757 121.786 198.055 121.682 198.415L118.883 198.188C119.025 197.525 119.305 196.952 119.721 196.469C120.138 195.981 120.675 195.607 121.334 195.347C121.996 195.081 122.764 194.949 123.635 194.949C124.241 194.949 124.821 195.02 125.375 195.162C125.933 195.304 126.428 195.524 126.859 195.822C127.295 196.121 127.638 196.504 127.889 196.973C128.14 197.437 128.265 197.993 128.265 198.642V206H125.396V204.487H125.311C125.136 204.828 124.901 205.129 124.608 205.389C124.314 205.645 123.961 205.846 123.549 205.993C123.138 206.135 122.662 206.206 122.122 206.206ZM122.988 204.118C123.433 204.118 123.826 204.03 124.167 203.855C124.508 203.675 124.776 203.434 124.97 203.131C125.164 202.828 125.261 202.484 125.261 202.101V200.943C125.166 201.005 125.036 201.062 124.871 201.114C124.71 201.161 124.527 201.206 124.324 201.249C124.12 201.286 123.916 201.322 123.713 201.355C123.509 201.384 123.325 201.41 123.159 201.433C122.804 201.485 122.494 201.568 122.228 201.682C121.963 201.795 121.757 201.949 121.611 202.143C121.464 202.333 121.39 202.57 121.39 202.854C121.39 203.266 121.54 203.58 121.838 203.798C122.141 204.011 122.524 204.118 122.988 204.118ZM130.273 206V195.091H133.206V196.994H133.32C133.518 196.317 133.852 195.806 134.321 195.46C134.79 195.11 135.33 194.935 135.94 194.935C136.092 194.935 136.255 194.944 136.43 194.963C136.606 194.982 136.759 195.008 136.892 195.041V197.726C136.75 197.683 136.553 197.645 136.303 197.612C136.052 197.579 135.822 197.562 135.614 197.562C135.169 197.562 134.771 197.66 134.42 197.854C134.075 198.043 133.8 198.308 133.597 198.649C133.398 198.99 133.298 199.383 133.298 199.828V206H130.273ZM141.628 206.178C140.8 206.178 140.049 205.964 139.377 205.538C138.709 205.107 138.179 204.475 137.786 203.642C137.398 202.804 137.204 201.777 137.204 200.56C137.204 199.31 137.405 198.27 137.807 197.442C138.21 196.608 138.745 195.986 139.412 195.574C140.085 195.157 140.821 194.949 141.621 194.949C142.232 194.949 142.741 195.053 143.148 195.261C143.56 195.465 143.892 195.721 144.143 196.028C144.398 196.331 144.592 196.63 144.725 196.923H144.817V191.455H147.836V206H144.853V204.253H144.725C144.583 204.556 144.382 204.857 144.121 205.155C143.866 205.448 143.532 205.692 143.12 205.886C142.713 206.08 142.215 206.178 141.628 206.178ZM142.587 203.77C143.075 203.77 143.487 203.637 143.823 203.372C144.164 203.102 144.424 202.726 144.604 202.243C144.789 201.76 144.881 201.194 144.881 200.545C144.881 199.897 144.791 199.333 144.611 198.855C144.431 198.377 144.171 198.008 143.83 197.747C143.489 197.487 143.075 197.357 142.587 197.357C142.09 197.357 141.671 197.491 141.33 197.761C140.989 198.031 140.731 198.405 140.556 198.884C140.381 199.362 140.293 199.916 140.293 200.545C140.293 201.18 140.381 201.741 140.556 202.229C140.736 202.712 140.994 203.09 141.33 203.365C141.671 203.635 142.09 203.77 142.587 203.77Z" fill="white"/>
<path d="M54.1548 935.638C54.098 935.065 53.8542 934.62 53.4233 934.303C52.9924 933.985 52.4077 933.827 51.669 933.827C51.1671 933.827 50.7434 933.898 50.3977 934.04C50.0521 934.177 49.7869 934.369 49.6023 934.615C49.4223 934.861 49.3324 935.141 49.3324 935.453C49.3229 935.714 49.3774 935.941 49.4957 936.135C49.6188 936.329 49.7869 936.497 50 936.639C50.2131 936.777 50.4593 936.897 50.7386 937.001C51.018 937.101 51.3163 937.186 51.6335 937.257L52.9403 937.57C53.5748 937.712 54.1572 937.901 54.6875 938.138C55.2178 938.375 55.6771 938.666 56.0653 939.011C56.4536 939.357 56.7543 939.764 56.9673 940.233C57.1851 940.702 57.2964 941.239 57.3011 941.845C57.2964 942.735 57.0691 943.507 56.6193 944.161C56.1742 944.809 55.5303 945.313 54.6875 945.673C53.8494 946.028 52.8385 946.206 51.6548 946.206C50.4806 946.206 49.4579 946.026 48.5866 945.666C47.7202 945.306 47.0431 944.774 46.5554 944.068C46.0724 943.358 45.8191 942.48 45.7955 941.433H48.7713C48.8045 941.921 48.9441 942.328 49.1903 942.655C49.4413 942.977 49.7751 943.221 50.1918 943.386C50.6132 943.547 51.089 943.628 51.6193 943.628C52.1402 943.628 52.5923 943.552 52.9759 943.401C53.3641 943.249 53.6648 943.038 53.8778 942.768C54.0909 942.499 54.1974 942.188 54.1974 941.838C54.1974 941.511 54.1004 941.237 53.9062 941.014C53.7169 940.792 53.4375 940.602 53.0682 940.446C52.7036 940.29 52.2562 940.148 51.7259 940.02L50.142 939.622C48.9157 939.324 47.9474 938.857 47.2372 938.223C46.527 937.589 46.1742 936.734 46.179 935.659C46.1742 934.778 46.4086 934.009 46.8821 933.351C47.3603 932.693 48.0161 932.179 48.8494 931.81C49.6828 931.44 50.6297 931.256 51.6903 931.256C52.7699 931.256 53.7121 931.44 54.517 931.81C55.3267 932.179 55.9564 932.693 56.4062 933.351C56.8561 934.009 57.0881 934.771 57.1023 935.638H54.1548ZM63.9444 946.213C62.8223 946.213 61.8564 945.986 61.0467 945.531C60.2418 945.072 59.6215 944.423 59.1859 943.585C58.7503 942.742 58.5325 941.746 58.5325 940.595C58.5325 939.473 58.7503 938.488 59.1859 937.641C59.6215 936.793 60.2347 936.133 61.0254 935.659C61.8209 935.186 62.7536 934.949 63.8237 934.949C64.5434 934.949 65.2134 935.065 65.8337 935.297C66.4587 935.524 67.0032 935.867 67.4672 936.327C67.9359 936.786 68.3005 937.364 68.5609 938.06C68.8213 938.751 68.9515 939.561 68.9515 940.489V941.32H59.7399V939.445H66.1035C66.1035 939.009 66.0088 938.623 65.8194 938.287C65.6301 937.951 65.3673 937.688 65.0311 937.499C64.6997 937.304 64.3138 937.207 63.8734 937.207C63.4141 937.207 63.0069 937.314 62.6518 937.527C62.3015 937.735 62.0268 938.017 61.828 938.372C61.6291 938.723 61.5273 939.113 61.5226 939.544V941.327C61.5226 941.866 61.622 942.333 61.8209 942.726C62.0245 943.119 62.3109 943.422 62.6802 943.635C63.0496 943.848 63.4875 943.955 63.9942 943.955C64.3303 943.955 64.6381 943.907 64.9175 943.812C65.1968 943.718 65.4359 943.576 65.6348 943.386C65.8337 943.197 65.9852 942.965 66.0893 942.69L68.8876 942.875C68.7456 943.547 68.4544 944.134 68.014 944.636C67.5784 945.134 67.015 945.522 66.3237 945.801C65.6372 946.076 64.8441 946.213 63.9444 946.213ZM76.3885 935.091V937.364H69.8189V935.091H76.3885ZM71.3104 932.477H74.336V942.648C74.336 942.927 74.3786 943.145 74.4638 943.301C74.549 943.453 74.6674 943.559 74.8189 943.621C74.9752 943.682 75.1551 943.713 75.3587 943.713C75.5008 943.713 75.6428 943.701 75.7848 943.678C75.9269 943.649 76.0358 943.628 76.1115 943.614L76.5874 945.865C76.4359 945.912 76.2228 945.967 75.9482 946.028C75.6736 946.095 75.3398 946.135 74.9468 946.149C74.2176 946.178 73.5784 946.08 73.0292 945.858C72.4847 945.635 72.0609 945.29 71.7579 944.821C71.4548 944.352 71.3057 943.76 71.3104 943.045V932.477ZM83.822 935.091V937.364H77.2524V935.091H83.822ZM78.7438 932.477H81.7694V942.648C81.7694 942.927 81.812 943.145 81.8973 943.301C81.9825 943.453 82.1009 943.559 82.2524 943.621C82.4086 943.682 82.5885 943.713 82.7921 943.713C82.9342 943.713 83.0762 943.701 83.2183 943.678C83.3603 943.649 83.4692 943.628 83.545 943.614L84.0208 945.865C83.8693 945.912 83.6563 945.967 83.3816 946.028C83.107 946.095 82.7732 946.135 82.3802 946.149C81.651 946.178 81.0118 946.08 80.4626 945.858C79.9181 945.635 79.4943 945.29 79.1913 944.821C78.8883 944.352 78.7391 943.76 78.7438 943.045V932.477ZM85.4529 946V935.091H88.4784V946H85.4529ZM86.9727 933.685C86.5229 933.685 86.137 933.536 85.8151 933.237C85.4978 932.934 85.3392 932.572 85.3392 932.151C85.3392 931.734 85.4978 931.376 85.8151 931.078C86.137 930.775 86.5229 930.624 86.9727 930.624C87.4226 930.624 87.8061 930.775 88.1233 931.078C88.4453 931.376 88.6063 931.734 88.6063 932.151C88.6063 932.572 88.4453 932.934 88.1233 933.237C87.8061 933.536 87.4226 933.685 86.9727 933.685ZM93.5876 939.693V946H90.5621V935.091H93.4456V937.016H93.5734C93.8149 936.381 94.2197 935.879 94.7879 935.51C95.3561 935.136 96.045 934.949 96.8547 934.949C97.6123 934.949 98.2728 935.115 98.8362 935.446C99.3997 935.777 99.8376 936.251 100.15 936.866C100.463 937.477 100.619 938.206 100.619 939.054V946H97.5933V939.594C97.5981 938.926 97.4276 938.405 97.082 938.031C96.7363 937.652 96.2605 937.463 95.6544 937.463C95.2472 937.463 94.8874 937.551 94.5749 937.726C94.2671 937.901 94.0256 938.157 93.8504 938.493C93.68 938.824 93.5924 939.224 93.5876 939.693ZM107.578 950.318C106.598 950.318 105.758 950.183 105.057 949.913C104.361 949.648 103.807 949.286 103.395 948.827C102.983 948.367 102.716 947.851 102.592 947.278L105.391 946.902C105.476 947.12 105.611 947.323 105.796 947.513C105.98 947.702 106.224 947.854 106.527 947.967C106.835 948.086 107.209 948.145 107.649 948.145C108.307 948.145 108.85 947.984 109.276 947.662C109.707 947.345 109.922 946.812 109.922 946.064V944.068H109.794C109.662 944.371 109.463 944.658 109.198 944.928C108.932 945.197 108.592 945.418 108.175 945.588C107.758 945.759 107.261 945.844 106.683 945.844C105.864 945.844 105.118 945.654 104.446 945.276C103.779 944.892 103.246 944.307 102.848 943.521C102.455 942.731 102.259 941.732 102.259 940.524C102.259 939.288 102.46 938.256 102.862 937.428C103.265 936.599 103.8 935.979 104.467 935.567C105.14 935.155 105.876 934.949 106.676 934.949C107.287 934.949 107.798 935.053 108.21 935.261C108.622 935.465 108.954 935.721 109.205 936.028C109.46 936.331 109.657 936.63 109.794 936.923H109.908V935.091H112.912V946.107C112.912 947.035 112.685 947.811 112.23 948.436C111.776 949.061 111.146 949.53 110.341 949.842C109.541 950.16 108.62 950.318 107.578 950.318ZM107.642 943.571C108.13 943.571 108.542 943.45 108.878 943.209C109.219 942.963 109.479 942.612 109.659 942.158C109.844 941.698 109.936 941.149 109.936 940.51C109.936 939.871 109.846 939.317 109.666 938.848C109.486 938.375 109.226 938.008 108.885 937.747C108.544 937.487 108.13 937.357 107.642 937.357C107.145 937.357 106.726 937.491 106.385 937.761C106.044 938.027 105.786 938.396 105.611 938.869C105.436 939.343 105.348 939.89 105.348 940.51C105.348 941.14 105.436 941.684 105.611 942.143C105.791 942.598 106.049 942.951 106.385 943.202C106.726 943.448 107.145 943.571 107.642 943.571ZM124.056 938.202L121.287 938.372C121.239 938.135 121.137 937.922 120.981 937.733C120.825 937.539 120.619 937.385 120.363 937.271C120.112 937.153 119.812 937.094 119.461 937.094C118.993 937.094 118.597 937.193 118.275 937.392C117.953 937.586 117.792 937.847 117.792 938.173C117.792 938.434 117.896 938.654 118.105 938.834C118.313 939.014 118.671 939.158 119.177 939.267L121.152 939.665C122.212 939.883 123.003 940.233 123.524 940.716C124.045 941.199 124.305 941.833 124.305 942.619C124.305 943.334 124.094 943.962 123.673 944.501C123.256 945.041 122.683 945.463 121.954 945.766C121.23 946.064 120.394 946.213 119.447 946.213C118.003 946.213 116.852 945.912 115.995 945.311C115.143 944.705 114.644 943.881 114.497 942.839L117.473 942.683C117.563 943.124 117.78 943.46 118.126 943.692C118.472 943.919 118.914 944.033 119.454 944.033C119.984 944.033 120.411 943.931 120.733 943.727C121.059 943.519 121.225 943.251 121.23 942.925C121.225 942.65 121.109 942.425 120.882 942.25C120.654 942.07 120.304 941.933 119.831 941.838L117.941 941.462C116.876 941.249 116.083 940.879 115.562 940.354C115.046 939.828 114.788 939.158 114.788 938.344C114.788 937.643 114.977 937.039 115.356 936.533C115.74 936.026 116.277 935.635 116.968 935.361C117.664 935.086 118.479 934.949 119.412 934.949C120.789 934.949 121.874 935.24 122.664 935.822C123.46 936.405 123.924 937.198 124.056 938.202Z" fill="white"/>
<path d="M49.3395 270.455V285H46.2642V270.455H49.3395ZM54.4984 278.693V285H51.4729V274.091H54.3564V276.016H54.4842C54.7257 275.381 55.1305 274.879 55.6987 274.51C56.2669 274.136 56.9558 273.949 57.7655 273.949C58.523 273.949 59.1836 274.115 59.747 274.446C60.3105 274.777 60.7484 275.251 61.0609 275.866C61.3734 276.477 61.5297 277.206 61.5297 278.054V285H58.5041V278.594C58.5088 277.926 58.3384 277.405 57.9927 277.031C57.6471 276.652 57.1712 276.463 56.5652 276.463C56.158 276.463 55.7981 276.551 55.4856 276.726C55.1779 276.901 54.9364 277.157 54.7612 277.493C54.5908 277.824 54.5032 278.224 54.4984 278.693ZM73.3541 274.091L69.5402 285H66.1311L62.3172 274.091H65.5132L67.7788 281.896H67.8924L70.151 274.091H73.3541ZM79.1824 285.213C78.0603 285.213 77.0943 284.986 76.2847 284.531C75.4798 284.072 74.8595 283.423 74.4239 282.585C73.9883 281.742 73.7705 280.746 73.7705 279.595C73.7705 278.473 73.9883 277.488 74.4239 276.641C74.8595 275.793 75.4727 275.133 76.2634 274.659C77.0588 274.186 77.9916 273.949 79.0617 273.949C79.7814 273.949 80.4514 274.065 81.0716 274.297C81.6966 274.524 82.2411 274.867 82.7051 275.327C83.1739 275.786 83.5385 276.364 83.7989 277.06C84.0593 277.751 84.1895 278.561 84.1895 279.489V280.32H74.9779V278.445H81.3415C81.3415 278.009 81.2468 277.623 81.0574 277.287C80.868 276.951 80.6052 276.688 80.2691 276.499C79.9376 276.304 79.5517 276.207 79.1114 276.207C78.6521 276.207 78.2449 276.314 77.8898 276.527C77.5394 276.735 77.2648 277.017 77.0659 277.372C76.8671 277.723 76.7653 278.113 76.7605 278.544V280.327C76.7605 280.866 76.86 281.333 77.0588 281.726C77.2624 282.119 77.5489 282.422 77.9182 282.635C78.2875 282.848 78.7255 282.955 79.2321 282.955C79.5683 282.955 79.8761 282.907 80.1554 282.812C80.4348 282.718 80.6739 282.576 80.8728 282.386C81.0716 282.197 81.2231 281.965 81.3273 281.69L84.1256 281.875C83.9836 282.547 83.6924 283.134 83.252 283.636C82.8164 284.134 82.253 284.522 81.5617 284.801C80.8751 285.076 80.082 285.213 79.1824 285.213ZM88.8495 278.693V285H85.8239V274.091H88.7075V276.016H88.8353C89.0768 275.381 89.4816 274.879 90.0498 274.51C90.618 274.136 91.3069 273.949 92.1166 273.949C92.8741 273.949 93.5346 274.115 94.0981 274.446C94.6615 274.777 95.0995 275.251 95.412 275.866C95.7245 276.477 95.8808 277.206 95.8808 278.054V285H92.8552V278.594C92.8599 277.926 92.6895 277.405 92.3438 277.031C91.9982 276.652 91.5223 276.463 90.9163 276.463C90.5091 276.463 90.1492 276.551 89.8367 276.726C89.529 276.901 89.2875 277.157 89.1123 277.493C88.9418 277.824 88.8543 278.224 88.8495 278.693ZM103.728 274.091V276.364H97.1583V274.091H103.728ZM98.6498 271.477H101.675V281.648C101.675 281.927 101.718 282.145 101.803 282.301C101.888 282.453 102.007 282.559 102.158 282.621C102.315 282.682 102.494 282.713 102.698 282.713C102.84 282.713 102.982 282.701 103.124 282.678C103.266 282.649 103.375 282.628 103.451 282.614L103.927 284.865C103.775 284.912 103.562 284.967 103.288 285.028C103.013 285.095 102.679 285.135 102.286 285.149C101.557 285.178 100.918 285.08 100.369 284.858C99.824 284.635 99.4003 284.29 99.0972 283.821C98.7942 283.352 98.6451 282.76 98.6498 282.045V271.477ZM110.171 285.213C109.067 285.213 108.113 284.979 107.308 284.51C106.508 284.036 105.89 283.378 105.455 282.536C105.019 281.688 104.801 280.705 104.801 279.588C104.801 278.461 105.019 277.476 105.455 276.634C105.89 275.786 106.508 275.128 107.308 274.659C108.113 274.186 109.067 273.949 110.171 273.949C111.274 273.949 112.226 274.186 113.026 274.659C113.831 275.128 114.451 275.786 114.886 276.634C115.322 277.476 115.54 278.461 115.54 279.588C115.54 280.705 115.322 281.688 114.886 282.536C114.451 283.378 113.831 284.036 113.026 284.51C112.226 284.979 111.274 285.213 110.171 285.213ZM110.185 282.869C110.687 282.869 111.106 282.727 111.442 282.443C111.778 282.154 112.031 281.761 112.202 281.264C112.377 280.767 112.465 280.201 112.465 279.567C112.465 278.932 112.377 278.366 112.202 277.869C112.031 277.372 111.778 276.979 111.442 276.69C111.106 276.402 110.687 276.257 110.185 276.257C109.678 276.257 109.252 276.402 108.906 276.69C108.565 276.979 108.307 277.372 108.132 277.869C107.962 278.366 107.877 278.932 107.877 279.567C107.877 280.201 107.962 280.767 108.132 281.264C108.307 281.761 108.565 282.154 108.906 282.443C109.252 282.727 109.678 282.869 110.185 282.869ZM117.167 285V274.091H120.1V275.994H120.214C120.413 275.317 120.747 274.806 121.216 274.46C121.684 274.11 122.224 273.935 122.835 273.935C122.986 273.935 123.15 273.944 123.325 273.963C123.5 273.982 123.654 274.008 123.787 274.041V276.726C123.645 276.683 123.448 276.645 123.197 276.612C122.946 276.579 122.716 276.562 122.508 276.562C122.063 276.562 121.665 276.66 121.315 276.854C120.969 277.043 120.695 277.308 120.491 277.649C120.292 277.99 120.193 278.383 120.193 278.828V285H117.167ZM127.211 289.091C126.827 289.091 126.467 289.06 126.131 288.999C125.8 288.942 125.525 288.868 125.307 288.778L125.989 286.52C126.344 286.629 126.664 286.688 126.948 286.697C127.237 286.707 127.485 286.641 127.694 286.499C127.907 286.357 128.08 286.115 128.212 285.774L128.39 285.312L124.476 274.091H127.658L129.917 282.102H130.03L132.31 274.091H135.513L131.273 286.179C131.07 286.766 130.793 287.277 130.442 287.713C130.097 288.153 129.659 288.492 129.128 288.729C128.598 288.97 127.959 289.091 127.211 289.091Z" fill="white"/>
<path d="M62.2713 56.1836H58.3828C58.3118 55.6805 58.1668 55.2337 57.9478 54.843C57.7288 54.4465 57.4477 54.1091 57.1044 53.831C56.7612 53.5528 56.3646 53.3397 55.9148 53.1918C55.4709 53.0438 54.9886 52.9698 54.4677 52.9698C53.5267 52.9698 52.7069 53.2036 52.0086 53.6712C51.3102 54.1328 50.7686 54.8075 50.3839 55.6953C49.9992 56.5772 49.8069 57.6484 49.8069 58.9091C49.8069 60.2053 49.9992 61.2943 50.3839 62.1761C50.7745 63.058 51.319 63.7238 52.0174 64.1737C52.7158 64.6235 53.5237 64.8484 54.4411 64.8484C54.956 64.8484 55.4324 64.7803 55.8704 64.6442C56.3143 64.508 56.7079 64.3098 57.0512 64.0494C57.3944 63.783 57.6785 63.4605 57.9034 63.0817C58.1343 62.7029 58.2941 62.2708 58.3828 61.7855L62.2713 61.8033C62.1707 62.6378 61.9192 63.4427 61.5167 64.218C61.1202 64.9875 60.5846 65.677 59.9098 66.2866C59.241 66.8903 58.442 67.3697 57.5128 67.7248C56.5895 68.074 55.5449 68.2486 54.3789 68.2486C52.7573 68.2486 51.3072 67.8816 50.0288 67.1477C48.7563 66.4138 47.7502 65.3514 47.0103 63.9606C46.2764 62.5697 45.9095 60.8859 45.9095 58.9091C45.9095 56.9264 46.2823 55.2396 47.0281 53.8487C47.7738 52.4579 48.7859 51.3984 50.0643 50.6705C51.3427 49.9366 52.7809 49.5696 54.3789 49.5696C55.4324 49.5696 56.409 49.7176 57.3086 50.0135C58.2142 50.3094 59.0161 50.7415 59.7145 51.3097C60.4129 51.8719 60.9811 52.5614 61.4191 53.3782C61.863 54.195 62.1471 55.1301 62.2713 56.1836ZM70.6931 68.2663C69.3141 68.2663 68.1215 67.9734 67.1153 67.3874C66.1151 66.7956 65.3427 65.9729 64.7982 64.9194C64.2537 63.86 63.9815 62.6319 63.9815 61.2351C63.9815 59.8265 64.2537 58.5954 64.7982 57.5419C65.3427 56.4825 66.1151 55.6598 67.1153 55.0739C68.1215 54.482 69.3141 54.1861 70.6931 54.1861C72.0721 54.1861 73.2618 54.482 74.262 55.0739C75.2682 55.6598 76.0435 56.4825 76.588 57.5419C77.1325 58.5954 77.4048 59.8265 77.4048 61.2351C77.4048 62.6319 77.1325 63.86 76.588 64.9194C76.0435 65.9729 75.2682 66.7956 74.262 67.3874C73.2618 67.9734 72.0721 68.2663 70.6931 68.2663ZM70.7109 65.3366C71.3382 65.3366 71.862 65.1591 72.2822 64.804C72.7025 64.4429 73.0191 63.9517 73.2322 63.3303C73.4512 62.7088 73.5607 62.0015 73.5607 61.2085C73.5607 60.4154 73.4512 59.7081 73.2322 59.0866C73.0191 58.4652 72.7025 57.974 72.2822 57.6129C71.862 57.2519 71.3382 57.0714 70.7109 57.0714C70.0776 57.0714 69.5449 57.2519 69.1129 57.6129C68.6867 57.974 68.3642 58.4652 68.1452 59.0866C67.9321 59.7081 67.8256 60.4154 67.8256 61.2085C67.8256 62.0015 67.9321 62.7088 68.1452 63.3303C68.3642 63.9517 68.6867 64.4429 69.1129 64.804C69.5449 65.1591 70.0776 65.3366 70.7109 65.3366ZM79.4389 68V54.3636H83.0433V56.7695H83.2031C83.4872 55.9705 83.9607 55.3402 84.6236 54.8786C85.2865 54.4169 86.0795 54.1861 87.0028 54.1861C87.938 54.1861 88.734 54.4199 89.391 54.8874C90.0479 55.3491 90.4859 55.9764 90.7049 56.7695H90.8469C91.1251 55.9883 91.6282 55.3639 92.3562 54.8963C93.0901 54.4228 93.9571 54.1861 94.9574 54.1861C96.2299 54.1861 97.2627 54.5915 98.0558 55.4023C98.8548 56.2073 99.2543 57.3495 99.2543 58.8292V68H95.4812V59.5749C95.4812 58.8174 95.2799 58.2492 94.8775 57.8704C94.475 57.4916 93.9719 57.3022 93.3683 57.3022C92.6817 57.3022 92.1461 57.5212 91.7614 57.9592C91.3767 58.3912 91.1843 58.9624 91.1843 59.6726V68H87.5178V59.495C87.5178 58.8262 87.3254 58.2936 86.9407 57.897C86.5619 57.5005 86.0618 57.3022 85.4403 57.3022C85.0201 57.3022 84.6413 57.4087 84.304 57.6218C83.9725 57.829 83.7092 58.1219 83.5138 58.5007C83.3185 58.8736 83.2209 59.3116 83.2209 59.8146V68H79.4389ZM101.817 73.1136V54.3636H105.545V56.6541H105.714C105.88 56.2872 106.119 55.9143 106.433 55.5355C106.753 55.1508 107.167 54.8312 107.676 54.5767C108.191 54.3163 108.83 54.1861 109.594 54.1861C110.588 54.1861 111.505 54.4465 112.346 54.9673C113.186 55.4822 113.858 56.2605 114.361 57.3022C114.864 58.3379 115.116 59.6371 115.116 61.1996C115.116 62.7206 114.87 64.005 114.379 65.0526C113.893 66.0942 113.231 66.8844 112.39 67.4229C111.556 67.9556 110.621 68.2219 109.585 68.2219C108.851 68.2219 108.226 68.1006 107.712 67.858C107.203 67.6153 106.785 67.3105 106.46 66.9435C106.134 66.5707 105.886 66.1948 105.714 65.8161H105.599V73.1136H101.817ZM105.519 61.1818C105.519 61.9927 105.631 62.6999 105.856 63.3036C106.081 63.9073 106.406 64.3778 106.833 64.7152C107.259 65.0466 107.777 65.2124 108.386 65.2124C109.002 65.2124 109.523 65.0437 109.949 64.7063C110.375 64.363 110.697 63.8896 110.916 63.2859C111.141 62.6763 111.254 61.9749 111.254 61.1818C111.254 60.3946 111.144 59.7022 110.925 59.1044C110.706 58.5066 110.384 58.0391 109.958 57.7017C109.531 57.3643 109.008 57.1957 108.386 57.1957C107.771 57.1957 107.25 57.3584 106.824 57.6839C106.404 58.0095 106.081 58.4711 105.856 59.0689C105.631 59.6667 105.519 60.371 105.519 61.1818ZM125.957 62.1939V54.3636H129.739V68H126.108V65.5231H125.966C125.658 66.3221 125.146 66.9643 124.43 67.4496C123.719 67.9349 122.852 68.1776 121.828 68.1776C120.917 68.1776 120.115 67.9704 119.423 67.5561C118.73 67.1418 118.189 66.5529 117.798 65.7894C117.413 65.0259 117.218 64.1115 117.212 63.0462V54.3636H120.994V62.3714C121 63.1764 121.216 63.8126 121.642 64.2802C122.068 64.7478 122.639 64.9815 123.355 64.9815C123.811 64.9815 124.237 64.878 124.634 64.6708C125.03 64.4577 125.35 64.1441 125.593 63.7298C125.841 63.3155 125.963 62.8035 125.957 62.1939ZM139.592 54.3636V57.2045H131.38V54.3636H139.592ZM133.244 51.0966H137.026V63.8097C137.026 64.1589 137.079 64.4311 137.186 64.6264C137.293 64.8158 137.441 64.949 137.63 65.0259C137.825 65.1029 138.05 65.1413 138.305 65.1413C138.482 65.1413 138.66 65.1265 138.837 65.0969C139.015 65.0614 139.151 65.0348 139.246 65.017L139.84 67.8313C139.651 67.8905 139.385 67.9586 139.041 68.0355C138.698 68.1184 138.281 68.1687 137.79 68.1864C136.878 68.2219 136.079 68.1006 135.393 67.8224C134.712 67.5443 134.182 67.1122 133.804 66.5263C133.425 65.9403 133.238 65.2005 133.244 64.3068V51.0966ZM147.699 68.2663C146.296 68.2663 145.088 67.9822 144.076 67.4141C143.07 66.84 142.295 66.0291 141.75 64.9815C141.206 63.928 140.934 62.6822 140.934 61.244C140.934 59.8413 141.206 58.6102 141.75 57.5508C142.295 56.4914 143.061 55.6657 144.05 55.0739C145.044 54.482 146.21 54.1861 147.548 54.1861C148.447 54.1861 149.285 54.3311 150.06 54.6211C150.841 54.9052 151.522 55.3343 152.102 55.9084C152.688 56.4825 153.144 57.2045 153.469 58.0746C153.795 58.9387 153.957 59.9508 153.957 61.1108V62.1495H142.443V59.8058H150.397C150.397 59.2612 150.279 58.7789 150.042 58.3587C149.806 57.9384 149.477 57.61 149.057 57.3732C148.643 57.1306 148.16 57.0092 147.61 57.0092C147.036 57.0092 146.527 57.1424 146.083 57.4087C145.645 57.6692 145.302 58.0213 145.053 58.4652C144.804 58.9032 144.677 59.3915 144.671 59.93V62.1584C144.671 62.8331 144.795 63.4161 145.044 63.9073C145.299 64.3986 145.657 64.7773 146.118 65.0437C146.58 65.31 147.127 65.4432 147.761 65.4432C148.181 65.4432 148.566 65.384 148.915 65.2656C149.264 65.1473 149.563 64.9697 149.811 64.733C150.06 64.4962 150.249 64.2062 150.38 63.8629L153.878 64.0938C153.7 64.9342 153.336 65.6681 152.786 66.2955C152.241 66.9169 151.537 67.4022 150.673 67.7514C149.814 68.0947 148.823 68.2663 147.699 68.2663ZM156 68V54.3636H159.667V56.7429H159.809C160.058 55.8965 160.475 55.2573 161.061 54.8253C161.647 54.3873 162.321 54.1683 163.085 54.1683C163.274 54.1683 163.479 54.1802 163.698 54.2038C163.917 54.2275 164.109 54.2601 164.275 54.3015V57.6573C164.097 57.604 163.851 57.5567 163.538 57.5153C163.224 57.4738 162.937 57.4531 162.677 57.4531C162.12 57.4531 161.623 57.5745 161.185 57.8171C160.753 58.0539 160.41 58.3853 160.155 58.8114C159.907 59.2376 159.782 59.7288 159.782 60.2852V68H156ZM171.237 68V49.8182H178.41C179.789 49.8182 180.964 50.0816 181.935 50.6083C182.906 51.1291 183.645 51.8542 184.154 52.7834C184.669 53.7067 184.927 54.772 184.927 55.9794C184.927 57.1868 184.666 58.2521 184.145 59.1754C183.625 60.0987 182.87 60.8178 181.882 61.3327C180.899 61.8477 179.71 62.1051 178.313 62.1051H173.741V59.0245H177.691C178.431 59.0245 179.041 58.8973 179.52 58.6428C180.005 58.3823 180.366 58.0243 180.603 57.5685C180.846 57.1069 180.967 56.5772 180.967 55.9794C180.967 55.3757 180.846 54.849 180.603 54.3991C180.366 53.9434 180.005 53.5913 179.52 53.3427C179.035 53.0882 178.419 52.9609 177.674 52.9609H175.081V68H171.237ZM190.45 68.2575C189.58 68.2575 188.805 68.1065 188.124 67.8047C187.443 67.4969 186.905 67.0442 186.508 66.4464C186.117 65.8427 185.922 65.091 185.922 64.1914C185.922 63.4338 186.061 62.7976 186.339 62.2827C186.618 61.7678 186.996 61.3535 187.476 61.0398C187.955 60.7261 188.5 60.4893 189.109 60.3295C189.725 60.1697 190.37 60.0573 191.045 59.9922C191.838 59.9093 192.477 59.8324 192.962 59.7614C193.448 59.6844 193.8 59.572 194.019 59.424C194.238 59.276 194.347 59.0571 194.347 58.767V58.7138C194.347 58.1515 194.17 57.7165 193.815 57.4087C193.465 57.101 192.968 56.9471 192.323 56.9471C191.642 56.9471 191.101 57.098 190.698 57.3999C190.296 57.6958 190.03 58.0687 189.899 58.5185L186.402 58.2344C186.579 57.4058 186.928 56.6896 187.449 56.0859C187.97 55.4763 188.642 55.0088 189.464 54.6832C190.293 54.3518 191.252 54.1861 192.341 54.1861C193.098 54.1861 193.823 54.2749 194.516 54.4524C195.214 54.63 195.833 54.9052 196.371 55.2781C196.916 55.6509 197.345 56.1303 197.659 56.7163C197.972 57.2963 198.129 57.9917 198.129 58.8026V68H194.543V66.109H194.436C194.217 66.5352 193.924 66.911 193.557 67.2365C193.19 67.5561 192.749 67.8076 192.234 67.9911C191.719 68.1687 191.125 68.2575 190.45 68.2575ZM191.533 65.6474C192.089 65.6474 192.581 65.5379 193.007 65.3189C193.433 65.094 193.767 64.7921 194.01 64.4134C194.253 64.0346 194.374 63.6055 194.374 63.1261V61.679C194.256 61.7559 194.093 61.8269 193.886 61.892C193.684 61.9512 193.457 62.0075 193.202 62.0607C192.948 62.1081 192.693 62.1525 192.439 62.1939C192.184 62.2294 191.953 62.262 191.746 62.2915C191.302 62.3567 190.914 62.4602 190.583 62.6023C190.252 62.7443 189.994 62.9367 189.811 63.1793C189.627 63.4161 189.535 63.712 189.535 64.0671C189.535 64.582 189.722 64.9756 190.095 65.2479C190.474 65.5142 190.953 65.6474 191.533 65.6474ZM200.638 68V54.3636H204.305V56.7429H204.447C204.695 55.8965 205.113 55.2573 205.699 54.8253C206.285 54.3873 206.959 54.1683 207.723 54.1683C207.912 54.1683 208.116 54.1802 208.335 54.2038C208.554 54.2275 208.747 54.2601 208.912 54.3015V57.6573C208.735 57.604 208.489 57.5567 208.176 57.5153C207.862 57.4738 207.575 57.4531 207.314 57.4531C206.758 57.4531 206.261 57.5745 205.823 57.8171C205.391 58.0539 205.048 58.3853 204.793 58.8114C204.545 59.2376 204.42 59.7288 204.42 60.2852V68H200.638ZM218.38 54.3636V57.2045H210.168V54.3636H218.38ZM212.032 51.0966H215.814V63.8097C215.814 64.1589 215.867 64.4311 215.974 64.6264C216.08 64.8158 216.228 64.949 216.418 65.0259C216.613 65.1029 216.838 65.1413 217.092 65.1413C217.27 65.1413 217.447 65.1265 217.625 65.0969C217.803 65.0614 217.939 65.0348 218.033 65.017L218.628 67.8313C218.439 67.8905 218.172 67.9586 217.829 68.0355C217.486 68.1184 217.069 68.1687 216.577 68.1864C215.666 68.2219 214.867 68.1006 214.18 67.8224C213.5 67.5443 212.97 67.1122 212.591 66.5263C212.212 65.9403 212.026 65.2005 212.032 64.3068V51.0966ZM231.593 58.2521L228.131 58.4652C228.072 58.1693 227.944 57.9029 227.749 57.6662C227.554 57.4235 227.296 57.2312 226.977 57.0891C226.663 56.9412 226.287 56.8672 225.849 56.8672C225.263 56.8672 224.769 56.9915 224.367 57.2401C223.964 57.4827 223.763 57.8082 223.763 58.2166C223.763 58.5421 223.893 58.8174 224.154 59.0423C224.414 59.2672 224.861 59.4477 225.494 59.5838L227.962 60.081C229.288 60.3532 230.276 60.7912 230.927 61.3949C231.578 61.9986 231.904 62.7917 231.904 63.7741C231.904 64.6679 231.641 65.4521 231.114 66.1268C230.593 66.8015 229.877 67.3282 228.965 67.707C228.06 68.0799 227.015 68.2663 225.831 68.2663C224.026 68.2663 222.588 67.8905 221.517 67.1388C220.452 66.3813 219.827 65.3514 219.644 64.0494L223.363 63.854C223.476 64.4045 223.748 64.8247 224.18 65.1147C224.612 65.3988 225.166 65.5408 225.84 65.5408C226.503 65.5408 227.036 65.4136 227.438 65.1591C227.847 64.8987 228.054 64.5643 228.06 64.1559C228.054 63.8126 227.909 63.5315 227.625 63.3125C227.341 63.0876 226.903 62.916 226.311 62.7976L223.949 62.3271C222.618 62.0607 221.626 61.5991 220.975 60.9421C220.33 60.2852 220.008 59.4477 220.008 58.4297C220.008 57.5537 220.244 56.7991 220.718 56.1658C221.197 55.5326 221.869 55.0443 222.733 54.701C223.603 54.3577 224.621 54.1861 225.787 54.1861C227.509 54.1861 228.865 54.5501 229.853 55.2781C230.847 56.006 231.427 56.9974 231.593 58.2521ZM121.217 79.8182V98H117.373V79.8182H121.217ZM123.955 79.8182H128.696L133.703 92.0341H133.916L138.923 79.8182H143.664V98H139.935V86.1658H139.784L135.079 97.9112H132.54L127.834 86.1214H127.683V98H123.955V79.8182ZM156.269 85.0472C156.198 84.3311 155.893 83.7747 155.355 83.3782C154.816 82.9817 154.085 82.7834 153.162 82.7834C152.534 82.7834 152.005 82.8722 151.573 83.0497C151.141 83.2214 150.809 83.4611 150.578 83.7688C150.353 84.0766 150.241 84.4258 150.241 84.8164C150.229 85.1419 150.297 85.426 150.445 85.6687C150.599 85.9113 150.809 86.1214 151.075 86.299C151.342 86.4706 151.65 86.6216 151.999 86.7518C152.348 86.8761 152.721 86.9826 153.117 87.0714L154.751 87.462C155.544 87.6396 156.272 87.8763 156.935 88.1722C157.598 88.4682 158.172 88.8321 158.657 89.2642C159.142 89.6963 159.518 90.2053 159.785 90.7912C160.057 91.3771 160.196 92.0489 160.202 92.8065C160.196 93.9192 159.912 94.8839 159.35 95.7006C158.793 96.5115 157.988 97.1418 156.935 97.5916C155.887 98.0355 154.624 98.2575 153.144 98.2575C151.676 98.2575 150.398 98.0326 149.309 97.5827C148.226 97.1329 147.379 96.4671 146.77 95.5852C146.166 94.6974 145.849 93.5996 145.82 92.2915H149.54C149.581 92.9012 149.756 93.4102 150.063 93.8185C150.377 94.221 150.794 94.5258 151.315 94.733C151.842 94.9342 152.437 95.0348 153.1 95.0348C153.751 95.0348 154.316 94.9401 154.795 94.7507C155.281 94.5613 155.656 94.2979 155.923 93.9606C156.189 93.6232 156.322 93.2356 156.322 92.7976C156.322 92.3892 156.201 92.0459 155.958 91.7678C155.722 91.4896 155.372 91.2528 154.911 91.0575C154.455 90.8622 153.896 90.6847 153.233 90.5249L151.253 90.0277C149.72 89.6548 148.51 89.0719 147.622 88.2788C146.734 87.4857 146.293 86.4174 146.299 85.0739C146.293 83.973 146.586 83.0112 147.178 82.1886C147.776 81.3659 148.596 80.7237 149.637 80.2621C150.679 79.8004 151.863 79.5696 153.188 79.5696C154.538 79.5696 155.716 79.8004 156.722 80.2621C157.734 80.7237 158.521 81.3659 159.083 82.1886C159.646 83.0112 159.936 83.9641 159.953 85.0472H156.269Z" fill="white"/>
<path d="M277 135H1440V1024H277V135Z" fill="white"/>
<circle cx="1340.29" cy="68.2916" r="33.2916" fill="#D9D9D9"/>
<circle cx="1340.29" cy="80.776" r="20.8073" fill="#92A2AF"/>
<circle cx="1339.6" cy="52.3394" r="15.9522" fill="#737373"/>
<path d="M336.42 67H331.264V52.4545H336.463C337.926 52.4545 339.186 52.7457 340.241 53.3281C341.297 53.9058 342.109 54.7367 342.678 55.821C343.25 56.9053 343.537 58.2027 343.537 59.7131C343.537 61.2282 343.25 62.5303 342.678 63.6193C342.109 64.7083 341.293 65.544 340.227 66.1264C339.167 66.7088 337.898 67 336.42 67ZM334.339 64.3651H336.293C337.202 64.3651 337.966 64.2041 338.587 63.8821C339.212 63.5554 339.68 63.0511 339.993 62.3693C340.31 61.6828 340.469 60.7973 340.469 59.7131C340.469 58.6383 340.31 57.7599 339.993 57.0781C339.68 56.3963 339.214 55.8944 338.594 55.5724C337.973 55.2505 337.209 55.0895 336.3 55.0895H334.339V64.3651ZM347.162 67H343.866L348.888 52.4545H352.851L357.865 67H354.569L350.926 55.7784H350.812L347.162 67ZM346.956 61.2827H354.74V63.6832H346.956V61.2827ZM366.834 56.6378C366.777 56.0649 366.534 55.6198 366.103 55.3026C365.672 54.9853 365.087 54.8267 364.348 54.8267C363.847 54.8267 363.423 54.8977 363.077 55.0398C362.731 55.1771 362.466 55.3688 362.282 55.6151C362.102 55.8613 362.012 56.1406 362.012 56.4531C362.002 56.7135 362.057 56.9408 362.175 57.1349C362.298 57.3291 362.466 57.4972 362.679 57.6392C362.892 57.7765 363.139 57.8973 363.418 58.0014C363.697 58.1009 363.996 58.1861 364.313 58.2571L365.62 58.5696C366.254 58.7116 366.837 58.901 367.367 59.1378C367.897 59.3745 368.356 59.6657 368.745 60.0114C369.133 60.357 369.434 60.7642 369.647 61.233C369.865 61.7017 369.976 62.2391 369.981 62.8452C369.976 63.7353 369.749 64.5071 369.299 65.1605C368.854 65.8092 368.21 66.3134 367.367 66.6733C366.529 67.0284 365.518 67.206 364.334 67.206C363.16 67.206 362.137 67.026 361.266 66.6662C360.4 66.3063 359.722 65.7737 359.235 65.0682C358.752 64.358 358.499 63.4796 358.475 62.4332H361.451C361.484 62.9209 361.624 63.3281 361.87 63.6548C362.121 63.9768 362.454 64.2206 362.871 64.3864C363.293 64.5473 363.768 64.6278 364.299 64.6278C364.82 64.6278 365.272 64.5521 365.655 64.4006C366.043 64.2491 366.344 64.0384 366.557 63.7685C366.77 63.4986 366.877 63.1884 366.877 62.8381C366.877 62.5114 366.78 62.2367 366.586 62.0142C366.396 61.7917 366.117 61.6023 365.748 61.446C365.383 61.2898 364.936 61.1477 364.405 61.0199L362.821 60.6222C361.595 60.3239 360.627 59.8575 359.917 59.223C359.206 58.5885 358.854 57.7339 358.858 56.6591C358.854 55.7784 359.088 55.009 359.561 54.3509C360.04 53.6927 360.695 53.179 361.529 52.8097C362.362 52.4403 363.309 52.2557 364.37 52.2557C365.449 52.2557 366.391 52.4403 367.196 52.8097C368.006 53.179 368.636 53.6927 369.086 54.3509C369.535 55.009 369.767 55.7713 369.782 56.6378H366.834ZM371.709 67V52.4545H374.784V58.456H381.027V52.4545H384.095V67H381.027V60.9915H374.784V67H371.709ZM386.291 67V52.4545H392.115C393.185 52.4545 394.077 52.6132 394.792 52.9304C395.507 53.2476 396.045 53.688 396.405 54.2514C396.764 54.8101 396.944 55.4541 396.944 56.1832C396.944 56.7514 396.831 57.2509 396.603 57.6818C396.376 58.108 396.064 58.4583 395.666 58.733C395.273 59.0028 394.823 59.1946 394.316 59.3082V59.4503C394.87 59.474 395.389 59.6302 395.872 59.919C396.36 60.2079 396.755 60.6127 397.058 61.1335C397.361 61.6496 397.513 62.2652 397.513 62.9801C397.513 63.7519 397.321 64.4408 396.937 65.0469C396.558 65.6482 395.997 66.1241 395.254 66.4744C394.511 66.8248 393.594 67 392.505 67H386.291ZM389.366 64.4858H391.873C392.73 64.4858 393.355 64.3224 393.748 63.9957C394.141 63.6643 394.338 63.224 394.338 62.6747C394.338 62.2723 394.241 61.9171 394.047 61.6094C393.852 61.3016 393.575 61.0601 393.216 60.8849C392.861 60.7098 392.437 60.6222 391.944 60.6222H389.366V64.4858ZM389.366 58.5412H391.646C392.067 58.5412 392.441 58.4678 392.768 58.321C393.1 58.1695 393.36 57.9564 393.549 57.6818C393.744 57.4072 393.841 57.0781 393.841 56.6946C393.841 56.169 393.654 55.7453 393.28 55.4233C392.91 55.1013 392.385 54.9403 391.703 54.9403H389.366V58.5412ZM412.54 59.7273C412.54 61.3134 412.239 62.6629 411.638 63.7756C411.041 64.8883 410.227 65.7382 409.195 66.3253C408.167 66.9077 407.012 67.1989 405.729 67.1989C404.436 67.1989 403.276 66.9053 402.249 66.3182C401.221 65.7311 400.409 64.8812 399.813 63.7685C399.216 62.6558 398.918 61.3087 398.918 59.7273C398.918 58.1411 399.216 56.7917 399.813 55.679C400.409 54.5663 401.221 53.7187 402.249 53.1364C403.276 52.5492 404.436 52.2557 405.729 52.2557C407.012 52.2557 408.167 52.5492 409.195 53.1364C410.227 53.7187 411.041 54.5663 411.638 55.679C412.239 56.7917 412.54 58.1411 412.54 59.7273ZM409.422 59.7273C409.422 58.6998 409.268 57.8333 408.961 57.1278C408.657 56.4223 408.229 55.8873 407.675 55.5227C407.121 55.1581 406.472 54.9759 405.729 54.9759C404.986 54.9759 404.337 55.1581 403.783 55.5227C403.229 55.8873 402.798 56.4223 402.49 57.1278C402.187 57.8333 402.036 58.6998 402.036 59.7273C402.036 60.7547 402.187 61.6212 402.49 62.3267C402.798 63.0322 403.229 63.5672 403.783 63.9318C404.337 64.2964 404.986 64.4787 405.729 64.4787C406.472 64.4787 407.121 64.2964 407.675 63.9318C408.229 63.5672 408.657 63.0322 408.961 62.3267C409.268 61.6212 409.422 60.7547 409.422 59.7273ZM416.165 67H412.869L417.891 52.4545H421.854L426.868 67H423.573L419.929 55.7784H419.815L416.165 67ZM415.959 61.2827H423.743V63.6832H415.959V61.2827ZM428.279 67V52.4545H434.017C435.116 52.4545 436.053 52.651 436.83 53.044C437.611 53.4323 438.205 53.9839 438.613 54.6989C439.024 55.4091 439.23 56.2448 439.23 57.206C439.23 58.1719 439.022 59.0028 438.605 59.6989C438.189 60.3902 437.585 60.9205 436.794 61.2898C436.008 61.6591 435.057 61.8438 433.939 61.8438H430.097V59.3722H433.442C434.029 59.3722 434.517 59.2917 434.905 59.1307C435.293 58.9697 435.582 58.7282 435.772 58.4062C435.966 58.0843 436.063 57.6842 436.063 57.206C436.063 56.723 435.966 56.3158 435.772 55.9844C435.582 55.6529 435.291 55.402 434.898 55.2315C434.51 55.0563 434.02 54.9688 433.428 54.9688H431.354V67H428.279ZM436.134 60.3807L439.749 67H436.354L432.817 60.3807H436.134ZM446.22 67H441.064V52.4545H446.263C447.726 52.4545 448.985 52.7457 450.041 53.3281C451.097 53.9058 451.909 54.7367 452.477 55.821C453.05 56.9053 453.336 58.2027 453.336 59.7131C453.336 61.2282 453.05 62.5303 452.477 63.6193C451.909 64.7083 451.092 65.544 450.027 66.1264C448.966 66.7088 447.697 67 446.22 67ZM444.139 64.3651H446.092C447.001 64.3651 447.766 64.2041 448.386 63.8821C449.011 63.5554 449.48 63.0511 449.792 62.3693C450.11 61.6828 450.268 60.7973 450.268 59.7131C450.268 58.6383 450.11 57.7599 449.792 57.0781C449.48 56.3963 449.014 55.8944 448.393 55.5724C447.773 55.2505 447.008 55.0895 446.099 55.0895H444.139V64.3651Z" fill="white"/>
<g filter="url(#filter0_d_2330_2)">
<rect x="370" y="217" width="377" height="377" rx="50" fill="#D9D9D9"/>
<path d="M370 267C370 239.386 392.386 217 420 217H697C724.614 217 747 239.386 747 267V308H370V267Z" fill="#2473CF"/>
</g>
<g filter="url(#filter1_d_2330_2)">
<rect x="852" y="217" width="377" height="377" rx="50" fill="#D9D9D9"/>
<path d="M852 267C852 239.386 874.386 217 902 217H1179C1206.61 217 1229 239.386 1229 267V308H852V267Z" fill="#2473CF"/>
</g>
<path d="M558.487 453.598C552.379 453.574 547.123 452.071 542.72 449.088C538.34 446.105 534.966 441.785 532.599 436.126C530.255 430.468 529.095 423.662 529.119 415.707C529.119 407.777 530.291 401.018 532.634 395.43C535.002 389.843 538.375 385.594 542.755 382.682C547.159 379.746 552.402 378.278 558.487 378.278C564.571 378.278 569.803 379.746 574.183 382.682C578.586 385.617 581.972 389.879 584.339 395.466C586.706 401.029 587.878 407.777 587.855 415.707C587.855 423.686 586.671 430.504 584.303 436.162C581.96 441.82 578.598 446.141 574.218 449.124C569.838 452.107 564.595 453.598 558.487 453.598ZM558.487 440.849C562.653 440.849 565.98 438.754 568.465 434.564C570.951 430.374 572.182 424.088 572.159 415.707C572.159 410.191 571.59 405.598 570.454 401.929C569.341 398.259 567.755 395.501 565.695 393.655C563.66 391.808 561.257 390.885 558.487 390.885C554.344 390.885 551.029 392.956 548.544 397.099C546.058 401.242 544.803 407.445 544.779 415.707C544.779 421.295 545.336 425.958 546.448 429.699C547.585 433.416 549.183 436.209 551.242 438.08C553.302 439.926 555.717 440.849 558.487 440.849Z" fill="black"/>
<path d="M437.43 257.455V272H434.774L428.446 262.845H428.339V272H425.264V257.455H427.963L434.241 266.602H434.369V257.455H437.43ZM446.57 267.355V261.091H449.596V272H446.691V270.018H446.577C446.331 270.658 445.921 271.171 445.349 271.56C444.78 271.948 444.087 272.142 443.268 272.142C442.538 272.142 441.897 271.976 441.343 271.645C440.789 271.313 440.356 270.842 440.043 270.232C439.735 269.621 439.579 268.889 439.574 268.037V261.091H442.6V267.497C442.605 268.141 442.778 268.65 443.118 269.024C443.459 269.398 443.916 269.585 444.489 269.585C444.854 269.585 445.195 269.502 445.512 269.337C445.829 269.166 446.085 268.915 446.279 268.584C446.478 268.252 446.575 267.843 446.57 267.355ZM451.676 272V261.091H454.559V263.016H454.687C454.914 262.376 455.293 261.872 455.824 261.503C456.354 261.134 456.988 260.949 457.727 260.949C458.475 260.949 459.112 261.136 459.637 261.51C460.163 261.879 460.513 262.381 460.689 263.016H460.802C461.025 262.391 461.427 261.891 462.01 261.517C462.597 261.138 463.29 260.949 464.091 260.949C465.109 260.949 465.935 261.273 466.569 261.922C467.208 262.566 467.528 263.48 467.528 264.663V272H464.51V265.26C464.51 264.654 464.349 264.199 464.027 263.896C463.705 263.593 463.302 263.442 462.819 263.442C462.27 263.442 461.842 263.617 461.534 263.967C461.226 264.313 461.072 264.77 461.072 265.338V272H458.139V265.196C458.139 264.661 457.985 264.235 457.677 263.918C457.374 263.6 456.974 263.442 456.477 263.442C456.141 263.442 455.838 263.527 455.568 263.697C455.303 263.863 455.092 264.098 454.936 264.401C454.78 264.699 454.701 265.049 454.701 265.452V272H451.676ZM469.635 272V257.455H472.66V262.923H472.753C472.885 262.63 473.077 262.331 473.328 262.028C473.584 261.721 473.915 261.465 474.322 261.261C474.734 261.053 475.246 260.949 475.856 260.949C476.652 260.949 477.386 261.157 478.058 261.574C478.73 261.986 479.268 262.608 479.67 263.442C480.073 264.27 480.274 265.31 480.274 266.56C480.274 267.777 480.078 268.804 479.685 269.642C479.296 270.475 478.766 271.107 478.094 271.538C477.426 271.964 476.678 272.178 475.849 272.178C475.262 272.178 474.763 272.08 474.351 271.886C473.944 271.692 473.61 271.448 473.349 271.155C473.089 270.857 472.89 270.556 472.753 270.253H472.618V272H469.635ZM472.596 266.545C472.596 267.194 472.686 267.76 472.866 268.243C473.046 268.726 473.307 269.102 473.648 269.372C473.989 269.637 474.403 269.77 474.891 269.77C475.383 269.77 475.8 269.635 476.141 269.365C476.481 269.09 476.739 268.712 476.915 268.229C477.095 267.741 477.185 267.18 477.185 266.545C477.185 265.916 477.097 265.362 476.922 264.884C476.747 264.405 476.489 264.031 476.148 263.761C475.807 263.491 475.388 263.357 474.891 263.357C474.398 263.357 473.981 263.487 473.641 263.747C473.304 264.008 473.046 264.377 472.866 264.855C472.686 265.333 472.596 265.897 472.596 266.545ZM486.924 272.213C485.802 272.213 484.836 271.986 484.027 271.531C483.222 271.072 482.602 270.423 482.166 269.585C481.73 268.742 481.513 267.746 481.513 266.595C481.513 265.473 481.73 264.488 482.166 263.641C482.602 262.793 483.215 262.133 484.005 261.659C484.801 261.186 485.734 260.949 486.804 260.949C487.523 260.949 488.193 261.065 488.814 261.297C489.439 261.524 489.983 261.867 490.447 262.327C490.916 262.786 491.281 263.364 491.541 264.06C491.801 264.751 491.932 265.561 491.932 266.489V267.32H482.72V265.445H489.084C489.084 265.009 488.989 264.623 488.799 264.287C488.61 263.951 488.347 263.688 488.011 263.499C487.68 263.304 487.294 263.207 486.853 263.207C486.394 263.207 485.987 263.314 485.632 263.527C485.281 263.735 485.007 264.017 484.808 264.372C484.609 264.723 484.507 265.113 484.503 265.544V267.327C484.503 267.866 484.602 268.333 484.801 268.726C485.004 269.119 485.291 269.422 485.66 269.635C486.03 269.848 486.468 269.955 486.974 269.955C487.31 269.955 487.618 269.907 487.897 269.812C488.177 269.718 488.416 269.576 488.615 269.386C488.814 269.197 488.965 268.965 489.069 268.69L491.868 268.875C491.726 269.547 491.434 270.134 490.994 270.636C490.558 271.134 489.995 271.522 489.304 271.801C488.617 272.076 487.824 272.213 486.924 272.213ZM493.566 272V261.091H496.499V262.994H496.613C496.812 262.317 497.146 261.806 497.614 261.46C498.083 261.11 498.623 260.935 499.234 260.935C499.385 260.935 499.548 260.944 499.724 260.963C499.899 260.982 500.053 261.008 500.185 261.041V263.726C500.043 263.683 499.847 263.645 499.596 263.612C499.345 263.579 499.115 263.562 498.907 263.562C498.462 263.562 498.064 263.66 497.714 263.854C497.368 264.043 497.093 264.308 496.89 264.649C496.691 264.99 496.592 265.383 496.592 265.828V272H493.566ZM510.627 272.213C509.524 272.213 508.57 271.979 507.765 271.51C506.965 271.036 506.347 270.378 505.912 269.536C505.476 268.688 505.258 267.705 505.258 266.588C505.258 265.461 505.476 264.476 505.912 263.634C506.347 262.786 506.965 262.128 507.765 261.659C508.57 261.186 509.524 260.949 510.627 260.949C511.731 260.949 512.682 261.186 513.483 261.659C514.287 262.128 514.908 262.786 515.343 263.634C515.779 264.476 515.997 265.461 515.997 266.588C515.997 267.705 515.779 268.688 515.343 269.536C514.908 270.378 514.287 271.036 513.483 271.51C512.682 271.979 511.731 272.213 510.627 272.213ZM510.642 269.869C511.144 269.869 511.563 269.727 511.899 269.443C512.235 269.154 512.488 268.761 512.659 268.264C512.834 267.767 512.921 267.201 512.921 266.567C512.921 265.932 512.834 265.366 512.659 264.869C512.488 264.372 512.235 263.979 511.899 263.69C511.563 263.402 511.144 263.257 510.642 263.257C510.135 263.257 509.709 263.402 509.363 263.69C509.022 263.979 508.764 264.372 508.589 264.869C508.419 265.366 508.333 265.932 508.333 266.567C508.333 267.201 508.419 267.767 508.589 268.264C508.764 268.761 509.022 269.154 509.363 269.443C509.709 269.727 510.135 269.869 510.642 269.869ZM523.491 261.091V263.364H516.758V261.091H523.491ZM518.299 272V260.303C518.299 259.512 518.453 258.856 518.76 258.335C519.073 257.814 519.499 257.424 520.039 257.163C520.579 256.903 521.192 256.773 521.878 256.773C522.342 256.773 522.766 256.808 523.15 256.879C523.538 256.95 523.827 257.014 524.016 257.071L523.476 259.344C523.358 259.306 523.211 259.27 523.036 259.237C522.866 259.204 522.69 259.188 522.51 259.188C522.065 259.188 521.755 259.292 521.58 259.5C521.405 259.704 521.317 259.99 521.317 260.359V272H518.299ZM532.42 257.455V272H529.345V257.455H532.42ZM540.356 261.091V263.364H533.786V261.091H540.356ZM535.278 258.477H538.303V268.648C538.303 268.927 538.346 269.145 538.431 269.301C538.516 269.453 538.635 269.559 538.786 269.621C538.943 269.682 539.122 269.713 539.326 269.713C539.468 269.713 539.61 269.701 539.752 269.678C539.894 269.649 540.003 269.628 540.079 269.614L540.555 271.865C540.403 271.912 540.19 271.967 539.916 272.028C539.641 272.095 539.307 272.135 538.914 272.149C538.185 272.178 537.546 272.08 536.997 271.858C536.452 271.635 536.028 271.29 535.725 270.821C535.422 270.352 535.273 269.76 535.278 269.045V258.477ZM546.841 272.213C545.719 272.213 544.753 271.986 543.943 271.531C543.139 271.072 542.518 270.423 542.083 269.585C541.647 268.742 541.429 267.746 541.429 266.595C541.429 265.473 541.647 264.488 542.083 263.641C542.518 262.793 543.131 262.133 543.922 261.659C544.718 261.186 545.65 260.949 546.72 260.949C547.44 260.949 548.11 261.065 548.73 261.297C549.355 261.524 549.9 261.867 550.364 262.327C550.833 262.786 551.197 263.364 551.458 264.06C551.718 264.751 551.848 265.561 551.848 266.489V267.32H542.637V265.445H549C549 265.009 548.906 264.623 548.716 264.287C548.527 263.951 548.264 263.688 547.928 263.499C547.596 263.304 547.21 263.207 546.77 263.207C546.311 263.207 545.904 263.314 545.549 263.527C545.198 263.735 544.924 264.017 544.725 264.372C544.526 264.723 544.424 265.113 544.419 265.544V267.327C544.419 267.866 544.519 268.333 544.718 268.726C544.921 269.119 545.208 269.422 545.577 269.635C545.946 269.848 546.384 269.955 546.891 269.955C547.227 269.955 547.535 269.907 547.814 269.812C548.094 269.718 548.333 269.576 548.532 269.386C548.73 269.197 548.882 268.965 548.986 268.69L551.784 268.875C551.642 269.547 551.351 270.134 550.911 270.636C550.475 271.134 549.912 271.522 549.22 271.801C548.534 272.076 547.741 272.213 546.841 272.213ZM553.483 272V261.091H556.366V263.016H556.494C556.721 262.376 557.1 261.872 557.63 261.503C558.161 261.134 558.795 260.949 559.534 260.949C560.282 260.949 560.919 261.136 561.444 261.51C561.97 261.879 562.32 262.381 562.495 263.016H562.609C562.832 262.391 563.234 261.891 563.817 261.517C564.404 261.138 565.097 260.949 565.897 260.949C566.915 260.949 567.742 261.273 568.376 261.922C569.015 262.566 569.335 263.48 569.335 264.663V272H566.317V265.26C566.317 264.654 566.156 264.199 565.834 263.896C565.512 263.593 565.109 263.442 564.626 263.442C564.077 263.442 563.648 263.617 563.341 263.967C563.033 264.313 562.879 264.77 562.879 265.338V272H559.946V265.196C559.946 264.661 559.792 264.235 559.484 263.918C559.181 263.6 558.781 263.442 558.284 263.442C557.948 263.442 557.645 263.527 557.375 263.697C557.11 263.863 556.899 264.098 556.743 264.401C556.586 264.699 556.508 265.049 556.508 265.452V272H553.483ZM580.462 264.202L577.692 264.372C577.644 264.135 577.543 263.922 577.386 263.733C577.23 263.539 577.024 263.385 576.768 263.271C576.517 263.153 576.217 263.094 575.866 263.094C575.398 263.094 575.002 263.193 574.68 263.392C574.358 263.586 574.197 263.847 574.197 264.173C574.197 264.434 574.302 264.654 574.51 264.834C574.718 265.014 575.076 265.158 575.582 265.267L577.557 265.665C578.617 265.883 579.408 266.233 579.929 266.716C580.45 267.199 580.71 267.833 580.71 268.619C580.71 269.334 580.499 269.962 580.078 270.501C579.661 271.041 579.088 271.463 578.359 271.766C577.635 272.064 576.799 272.213 575.852 272.213C574.408 272.213 573.258 271.912 572.401 271.311C571.548 270.705 571.049 269.881 570.902 268.839L573.878 268.683C573.968 269.124 574.186 269.46 574.531 269.692C574.877 269.919 575.32 270.033 575.859 270.033C576.39 270.033 576.816 269.931 577.138 269.727C577.464 269.519 577.63 269.251 577.635 268.925C577.63 268.65 577.514 268.425 577.287 268.25C577.06 268.07 576.709 267.933 576.236 267.838L574.347 267.462C573.281 267.249 572.488 266.879 571.967 266.354C571.451 265.828 571.193 265.158 571.193 264.344C571.193 263.643 571.383 263.039 571.761 262.533C572.145 262.026 572.682 261.635 573.374 261.361C574.07 261.086 574.884 260.949 575.817 260.949C577.195 260.949 578.279 261.24 579.07 261.822C579.865 262.405 580.329 263.198 580.462 264.202ZM586.564 272V261.091H589.59V272H586.564ZM588.084 259.685C587.634 259.685 587.248 259.536 586.926 259.237C586.609 258.934 586.451 258.572 586.451 258.151C586.451 257.734 586.609 257.376 586.926 257.078C587.248 256.775 587.634 256.624 588.084 256.624C588.534 256.624 588.917 256.775 589.235 257.078C589.557 257.376 589.718 257.734 589.718 258.151C589.718 258.572 589.557 258.934 589.235 259.237C588.917 259.536 588.534 259.685 588.084 259.685ZM594.699 265.693V272H591.673V261.091H594.557V263.016H594.685C594.926 262.381 595.331 261.879 595.899 261.51C596.468 261.136 597.156 260.949 597.966 260.949C598.724 260.949 599.384 261.115 599.948 261.446C600.511 261.777 600.949 262.251 601.262 262.866C601.574 263.477 601.73 264.206 601.73 265.054V272H598.705V265.594C598.709 264.926 598.539 264.405 598.193 264.031C597.848 263.652 597.372 263.463 596.766 263.463C596.359 263.463 595.999 263.551 595.686 263.726C595.379 263.901 595.137 264.157 594.962 264.493C594.791 264.824 594.704 265.224 594.699 265.693ZM611.196 257.455V272H608.121V257.455H611.196ZM616.355 265.693V272H613.329V261.091H616.213V263.016H616.341C616.582 262.381 616.987 261.879 617.555 261.51C618.123 261.136 618.812 260.949 619.622 260.949C620.379 260.949 621.04 261.115 621.603 261.446C622.167 261.777 622.605 262.251 622.917 262.866C623.23 263.477 623.386 264.206 623.386 265.054V272H620.361V265.594C620.365 264.926 620.195 264.405 619.849 264.031C619.504 263.652 619.028 263.463 618.422 263.463C618.014 263.463 617.655 263.551 617.342 263.726C617.034 263.901 616.793 264.157 616.618 264.493C616.447 264.824 616.36 265.224 616.355 265.693ZM635.21 261.091L631.397 272H627.987L624.174 261.091H627.37L629.635 268.896H629.749L632.007 261.091H635.21ZM641.039 272.213C639.917 272.213 638.951 271.986 638.141 271.531C637.336 271.072 636.716 270.423 636.28 269.585C635.845 268.742 635.627 267.746 635.627 266.595C635.627 265.473 635.845 264.488 636.28 263.641C636.716 262.793 637.329 262.133 638.12 261.659C638.915 261.186 639.848 260.949 640.918 260.949C641.638 260.949 642.308 261.065 642.928 261.297C643.553 261.524 644.098 261.867 644.562 262.327C645.03 262.786 645.395 263.364 645.655 264.06C645.916 264.751 646.046 265.561 646.046 266.489V267.32H636.834V265.445H643.198C643.198 265.009 643.103 264.623 642.914 264.287C642.724 263.951 642.462 263.688 642.125 263.499C641.794 263.304 641.408 263.207 640.968 263.207C640.509 263.207 640.101 263.314 639.746 263.527C639.396 263.735 639.121 264.017 638.922 264.372C638.723 264.723 638.622 265.113 638.617 265.544V267.327C638.617 267.866 638.716 268.333 638.915 268.726C639.119 269.119 639.405 269.422 639.775 269.635C640.144 269.848 640.582 269.955 641.089 269.955C641.425 269.955 641.732 269.907 642.012 269.812C642.291 269.718 642.53 269.576 642.729 269.386C642.928 269.197 643.08 268.965 643.184 268.69L645.982 268.875C645.84 269.547 645.549 270.134 645.108 270.636C644.673 271.134 644.109 271.522 643.418 271.801C642.732 272.076 641.938 272.213 641.039 272.213ZM650.706 265.693V272H647.68V261.091H650.564V263.016H650.692C650.933 262.381 651.338 261.879 651.906 261.51C652.474 261.136 653.163 260.949 653.973 260.949C654.731 260.949 655.391 261.115 655.954 261.446C656.518 261.777 656.956 262.251 657.268 262.866C657.581 263.477 657.737 264.206 657.737 265.054V272H654.712V265.594C654.716 264.926 654.546 264.405 654.2 264.031C653.855 263.652 653.379 263.463 652.773 263.463C652.365 263.463 652.006 263.551 651.693 263.726C651.385 263.901 651.144 264.157 650.969 264.493C650.798 264.824 650.711 265.224 650.706 265.693ZM665.584 261.091V263.364H659.015V261.091H665.584ZM660.506 258.477H663.532V268.648C663.532 268.927 663.574 269.145 663.66 269.301C663.745 269.453 663.863 269.559 664.015 269.621C664.171 269.682 664.351 269.713 664.554 269.713C664.697 269.713 664.839 269.701 664.981 269.678C665.123 269.649 665.232 269.628 665.307 269.614L665.783 271.865C665.632 271.912 665.419 271.967 665.144 272.028C664.869 272.095 664.536 272.135 664.143 272.149C663.413 272.178 662.774 272.08 662.225 271.858C661.68 271.635 661.257 271.29 660.954 270.821C660.651 270.352 660.501 269.76 660.506 269.045V258.477ZM672.027 272.213C670.924 272.213 669.97 271.979 669.165 271.51C668.365 271.036 667.747 270.378 667.311 269.536C666.875 268.688 666.658 267.705 666.658 266.588C666.658 265.461 666.875 264.476 667.311 263.634C667.747 262.786 668.365 262.128 669.165 261.659C669.97 261.186 670.924 260.949 672.027 260.949C673.13 260.949 674.082 261.186 674.882 261.659C675.687 262.128 676.307 262.786 676.743 263.634C677.179 264.476 677.396 265.461 677.396 266.588C677.396 267.705 677.179 268.688 676.743 269.536C676.307 270.378 675.687 271.036 674.882 271.51C674.082 271.979 673.13 272.213 672.027 272.213ZM672.041 269.869C672.543 269.869 672.962 269.727 673.298 269.443C673.634 269.154 673.888 268.761 674.058 268.264C674.233 267.767 674.321 267.201 674.321 266.567C674.321 265.932 674.233 265.366 674.058 264.869C673.888 264.372 673.634 263.979 673.298 263.69C672.962 263.402 672.543 263.257 672.041 263.257C671.535 263.257 671.108 263.402 670.763 263.69C670.422 263.979 670.164 264.372 669.989 264.869C669.818 265.366 669.733 265.932 669.733 266.567C669.733 267.201 669.818 267.767 669.989 268.264C670.164 268.761 670.422 269.154 670.763 269.443C671.108 269.727 671.535 269.869 672.041 269.869ZM679.024 272V261.091H681.957V262.994H682.071C682.269 262.317 682.603 261.806 683.072 261.46C683.541 261.11 684.08 260.935 684.691 260.935C684.843 260.935 685.006 260.944 685.181 260.963C685.357 260.982 685.51 261.008 685.643 261.041V263.726C685.501 263.683 685.304 263.645 685.053 263.612C684.803 263.579 684.573 263.562 684.365 263.562C683.919 263.562 683.522 263.66 683.171 263.854C682.826 264.043 682.551 264.308 682.348 264.649C682.149 264.99 682.049 265.383 682.049 265.828V272H679.024ZM689.067 276.091C688.684 276.091 688.324 276.06 687.988 275.999C687.656 275.942 687.382 275.868 687.164 275.778L687.846 273.52C688.201 273.629 688.52 273.688 688.804 273.697C689.093 273.707 689.342 273.641 689.55 273.499C689.763 273.357 689.936 273.115 690.069 272.774L690.246 272.312L686.333 261.091H689.515L691.773 269.102H691.887L694.167 261.091H697.37L693.13 273.179C692.926 273.766 692.649 274.277 692.299 274.713C691.953 275.153 691.515 275.492 690.985 275.729C690.454 275.97 689.815 276.091 689.067 276.091Z" fill="white"/>
<path d="M901.264 272V257.455H904.339V269.464H910.575V272H901.264ZM915.326 272.206C914.63 272.206 914.01 272.085 913.465 271.844C912.921 271.598 912.49 271.235 912.172 270.757C911.86 270.274 911.704 269.673 911.704 268.953C911.704 268.347 911.815 267.838 912.037 267.426C912.26 267.014 912.563 266.683 912.947 266.432C913.33 266.181 913.766 265.991 914.253 265.864C914.746 265.736 915.262 265.646 915.802 265.594C916.436 265.527 916.948 265.466 917.336 265.409C917.724 265.348 918.006 265.258 918.181 265.139C918.356 265.021 918.444 264.846 918.444 264.614V264.571C918.444 264.121 918.302 263.773 918.018 263.527C917.738 263.281 917.341 263.158 916.824 263.158C916.28 263.158 915.847 263.278 915.525 263.52C915.203 263.757 914.99 264.055 914.885 264.415L912.087 264.188C912.229 263.525 912.509 262.952 912.925 262.469C913.342 261.981 913.879 261.607 914.537 261.347C915.2 261.081 915.967 260.949 916.839 260.949C917.445 260.949 918.025 261.02 918.579 261.162C919.137 261.304 919.632 261.524 920.063 261.822C920.499 262.121 920.842 262.504 921.093 262.973C921.344 263.437 921.469 263.993 921.469 264.642V272H918.6V270.487H918.515C918.34 270.828 918.105 271.129 917.812 271.389C917.518 271.645 917.165 271.846 916.753 271.993C916.341 272.135 915.866 272.206 915.326 272.206ZM916.192 270.118C916.637 270.118 917.03 270.03 917.371 269.855C917.712 269.675 917.98 269.434 918.174 269.131C918.368 268.828 918.465 268.484 918.465 268.101V266.943C918.37 267.005 918.24 267.062 918.074 267.114C917.913 267.161 917.731 267.206 917.528 267.249C917.324 267.286 917.12 267.322 916.917 267.355C916.713 267.384 916.528 267.41 916.363 267.433C916.008 267.485 915.698 267.568 915.432 267.682C915.167 267.795 914.961 267.949 914.814 268.143C914.668 268.333 914.594 268.57 914.594 268.854C914.594 269.266 914.743 269.58 915.042 269.798C915.345 270.011 915.728 270.118 916.192 270.118ZM932.553 264.202L929.783 264.372C929.736 264.135 929.634 263.922 929.478 263.733C929.322 263.539 929.116 263.385 928.86 263.271C928.609 263.153 928.309 263.094 927.958 263.094C927.489 263.094 927.094 263.193 926.772 263.392C926.45 263.586 926.289 263.847 926.289 264.173C926.289 264.434 926.393 264.654 926.602 264.834C926.81 265.014 927.167 265.158 927.674 265.267L929.648 265.665C930.709 265.883 931.5 266.233 932.021 266.716C932.541 267.199 932.802 267.833 932.802 268.619C932.802 269.334 932.591 269.962 932.17 270.501C931.753 271.041 931.18 271.463 930.451 271.766C929.727 272.064 928.891 272.213 927.944 272.213C926.5 272.213 925.349 271.912 924.492 271.311C923.64 270.705 923.14 269.881 922.994 268.839L925.97 268.683C926.059 269.124 926.277 269.46 926.623 269.692C926.969 269.919 927.411 270.033 927.951 270.033C928.481 270.033 928.907 269.931 929.229 269.727C929.556 269.519 929.722 269.251 929.727 268.925C929.722 268.65 929.606 268.425 929.379 268.25C929.151 268.07 928.801 267.933 928.327 267.838L926.438 267.462C925.373 267.249 924.58 266.879 924.059 266.354C923.543 265.828 923.285 265.158 923.285 264.344C923.285 263.643 923.474 263.039 923.853 262.533C924.237 262.026 924.774 261.635 925.465 261.361C926.161 261.086 926.976 260.949 927.908 260.949C929.286 260.949 930.371 261.24 931.161 261.822C931.957 262.405 932.421 263.198 932.553 264.202ZM940.17 261.091V263.364H933.6V261.091H940.17ZM935.092 258.477H938.117V268.648C938.117 268.927 938.16 269.145 938.245 269.301C938.33 269.453 938.449 269.559 938.6 269.621C938.756 269.682 938.936 269.713 939.14 269.713C939.282 269.713 939.424 269.701 939.566 269.678C939.708 269.649 939.817 269.628 939.893 269.614L940.368 271.865C940.217 271.912 940.004 271.967 939.729 272.028C939.455 272.095 939.121 272.135 938.728 272.149C937.999 272.178 937.359 272.08 936.81 271.858C936.266 271.635 935.842 271.29 935.539 270.821C935.236 270.352 935.087 269.76 935.092 269.045V258.477ZM949.222 257.455V272H946.146V257.455H949.222ZM957.157 261.091V263.364H950.588V261.091H957.157ZM952.079 258.477H955.105V268.648C955.105 268.927 955.147 269.145 955.233 269.301C955.318 269.453 955.436 269.559 955.588 269.621C955.744 269.682 955.924 269.713 956.128 269.713C956.27 269.713 956.412 269.701 956.554 269.678C956.696 269.649 956.805 269.628 956.88 269.614L957.356 271.865C957.205 271.912 956.992 271.967 956.717 272.028C956.442 272.095 956.109 272.135 955.716 272.149C954.987 272.178 954.347 272.08 953.798 271.858C953.254 271.635 952.83 271.29 952.527 270.821C952.224 270.352 952.075 269.76 952.079 269.045V258.477ZM963.643 272.213C962.521 272.213 961.555 271.986 960.745 271.531C959.94 271.072 959.32 270.423 958.884 269.585C958.449 268.742 958.231 267.746 958.231 266.595C958.231 265.473 958.449 264.488 958.884 263.641C959.32 262.793 959.933 262.133 960.724 261.659C961.519 261.186 962.452 260.949 963.522 260.949C964.242 260.949 964.912 261.065 965.532 261.297C966.157 261.524 966.701 261.867 967.165 262.327C967.634 262.786 967.999 263.364 968.259 264.06C968.52 264.751 968.65 265.561 968.65 266.489V267.32H959.438V265.445H965.802C965.802 265.009 965.707 264.623 965.518 264.287C965.328 263.951 965.066 263.688 964.729 263.499C964.398 263.304 964.012 263.207 963.572 263.207C963.112 263.207 962.705 263.314 962.35 263.527C962 263.735 961.725 264.017 961.526 264.372C961.327 264.723 961.226 265.113 961.221 265.544V267.327C961.221 267.866 961.32 268.333 961.519 268.726C961.723 269.119 962.009 269.422 962.379 269.635C962.748 269.848 963.186 269.955 963.692 269.955C964.029 269.955 964.336 269.907 964.616 269.812C964.895 269.718 965.134 269.576 965.333 269.386C965.532 269.197 965.683 268.965 965.788 268.69L968.586 268.875C968.444 269.547 968.153 270.134 967.712 270.636C967.277 271.134 966.713 271.522 966.022 271.801C965.335 272.076 964.542 272.213 963.643 272.213ZM970.284 272V261.091H973.168V263.016H973.296C973.523 262.376 973.902 261.872 974.432 261.503C974.962 261.134 975.597 260.949 976.335 260.949C977.084 260.949 977.72 261.136 978.246 261.51C978.771 261.879 979.122 262.381 979.297 263.016H979.411C979.633 262.391 980.036 261.891 980.618 261.517C981.205 261.138 981.899 260.949 982.699 260.949C983.717 260.949 984.543 261.273 985.178 261.922C985.817 262.566 986.137 263.48 986.137 264.663V272H983.118V265.26C983.118 264.654 982.957 264.199 982.635 263.896C982.313 263.593 981.911 263.442 981.428 263.442C980.878 263.442 980.45 263.617 980.142 263.967C979.834 264.313 979.681 264.77 979.681 265.338V272H976.747V265.196C976.747 264.661 976.593 264.235 976.286 263.918C975.983 263.6 975.583 263.442 975.085 263.442C974.749 263.442 974.446 263.527 974.176 263.697C973.911 263.863 973.7 264.098 973.544 264.401C973.388 264.699 973.31 265.049 973.31 265.452V272H970.284ZM995.039 272H991.744L996.765 257.455H1000.73L1005.74 272H1002.45L998.803 260.778H998.69L995.039 272ZM994.833 266.283H1002.62V268.683H994.833V266.283ZM1010.61 272.178C1009.78 272.178 1009.03 271.964 1008.36 271.538C1007.69 271.107 1007.16 270.475 1006.77 269.642C1006.38 268.804 1006.18 267.777 1006.18 266.56C1006.18 265.31 1006.38 264.27 1006.79 263.442C1007.19 262.608 1007.72 261.986 1008.39 261.574C1009.06 261.157 1009.8 260.949 1010.6 260.949C1011.21 260.949 1011.72 261.053 1012.13 261.261C1012.54 261.465 1012.87 261.721 1013.12 262.028C1013.38 262.331 1013.57 262.63 1013.7 262.923H1013.8V257.455H1016.82V272H1013.83V270.253H1013.7C1013.56 270.556 1013.36 270.857 1013.1 271.155C1012.85 271.448 1012.51 271.692 1012.1 271.886C1011.69 272.08 1011.2 272.178 1010.61 272.178ZM1011.57 269.77C1012.05 269.77 1012.47 269.637 1012.8 269.372C1013.14 269.102 1013.4 268.726 1013.58 268.243C1013.77 267.76 1013.86 267.194 1013.86 266.545C1013.86 265.897 1013.77 265.333 1013.59 264.855C1013.41 264.377 1013.15 264.008 1012.81 263.747C1012.47 263.487 1012.05 263.357 1011.57 263.357C1011.07 263.357 1010.65 263.491 1010.31 263.761C1009.97 264.031 1009.71 264.405 1009.54 264.884C1009.36 265.362 1009.27 265.916 1009.27 266.545C1009.27 267.18 1009.36 267.741 1009.54 268.229C1009.72 268.712 1009.97 269.09 1010.31 269.365C1010.65 269.635 1011.07 269.77 1011.57 269.77ZM1022.98 272.178C1022.15 272.178 1021.4 271.964 1020.73 271.538C1020.06 271.107 1019.53 270.475 1019.14 269.642C1018.75 268.804 1018.56 267.777 1018.56 266.56C1018.56 265.31 1018.76 264.27 1019.16 263.442C1019.56 262.608 1020.1 261.986 1020.77 261.574C1021.44 261.157 1022.18 260.949 1022.98 260.949C1023.59 260.949 1024.1 261.053 1024.5 261.261C1024.92 261.465 1025.25 261.721 1025.5 262.028C1025.75 262.331 1025.95 262.63 1026.08 262.923H1026.17V257.455H1029.19V272H1026.21V270.253H1026.08C1025.94 270.556 1025.74 270.857 1025.48 271.155C1025.22 271.448 1024.89 271.692 1024.47 271.886C1024.07 272.08 1023.57 272.178 1022.98 272.178ZM1023.94 269.77C1024.43 269.77 1024.84 269.637 1025.18 269.372C1025.52 269.102 1025.78 268.726 1025.96 268.243C1026.14 267.76 1026.24 267.194 1026.24 266.545C1026.24 265.897 1026.15 265.333 1025.97 264.855C1025.79 264.377 1025.53 264.008 1025.18 263.747C1024.84 263.487 1024.43 263.357 1023.94 263.357C1023.44 263.357 1023.03 263.491 1022.68 263.761C1022.34 264.031 1022.09 264.405 1021.91 264.884C1021.74 265.362 1021.65 265.916 1021.65 266.545C1021.65 267.18 1021.74 267.741 1021.91 268.229C1022.09 268.712 1022.35 269.09 1022.68 269.365C1023.03 269.635 1023.44 269.77 1023.94 269.77ZM1036.31 272.213C1035.19 272.213 1034.22 271.986 1033.41 271.531C1032.61 271.072 1031.99 270.423 1031.55 269.585C1031.12 268.742 1030.9 267.746 1030.9 266.595C1030.9 265.473 1031.12 264.488 1031.55 263.641C1031.99 262.793 1032.6 262.133 1033.39 261.659C1034.19 261.186 1035.12 260.949 1036.19 260.949C1036.91 260.949 1037.58 261.065 1038.2 261.297C1038.82 261.524 1039.37 261.867 1039.83 262.327C1040.3 262.786 1040.67 263.364 1040.93 264.06C1041.19 264.751 1041.32 265.561 1041.32 266.489V267.32H1032.11V265.445H1038.47C1038.47 265.009 1038.37 264.623 1038.18 264.287C1038 263.951 1037.73 263.688 1037.4 263.499C1037.06 263.304 1036.68 263.207 1036.24 263.207C1035.78 263.207 1035.37 263.314 1035.02 263.527C1034.67 263.735 1034.39 264.017 1034.19 264.372C1033.99 264.723 1033.89 265.113 1033.89 265.544V267.327C1033.89 267.866 1033.99 268.333 1034.19 268.726C1034.39 269.119 1034.68 269.422 1035.05 269.635C1035.41 269.848 1035.85 269.955 1036.36 269.955C1036.7 269.955 1037 269.907 1037.28 269.812C1037.56 269.718 1037.8 269.576 1038 269.386C1038.2 269.197 1038.35 268.965 1038.45 268.69L1041.25 268.875C1041.11 269.547 1040.82 270.134 1040.38 270.636C1039.94 271.134 1039.38 271.522 1038.69 271.801C1038 272.076 1037.21 272.213 1036.31 272.213ZM1046.97 272.178C1046.14 272.178 1045.39 271.964 1044.72 271.538C1044.05 271.107 1043.52 270.475 1043.13 269.642C1042.74 268.804 1042.55 267.777 1042.55 266.56C1042.55 265.31 1042.75 264.27 1043.15 263.442C1043.55 262.608 1044.09 261.986 1044.76 261.574C1045.43 261.157 1046.16 260.949 1046.96 260.949C1047.57 260.949 1048.08 261.053 1048.49 261.261C1048.9 261.465 1049.23 261.721 1049.49 262.028C1049.74 262.331 1049.94 262.63 1050.07 262.923H1050.16V257.455H1053.18V272H1050.2V270.253H1050.07C1049.93 270.556 1049.72 270.857 1049.46 271.155C1049.21 271.448 1048.87 271.692 1048.46 271.886C1048.06 272.08 1047.56 272.178 1046.97 272.178ZM1047.93 269.77C1048.42 269.77 1048.83 269.637 1049.17 269.372C1049.51 269.102 1049.77 268.726 1049.95 268.243C1050.13 267.76 1050.22 267.194 1050.22 266.545C1050.22 265.897 1050.13 265.333 1049.95 264.855C1049.77 264.377 1049.51 264.008 1049.17 263.747C1048.83 263.487 1048.42 263.357 1047.93 263.357C1047.43 263.357 1047.01 263.491 1046.67 263.761C1046.33 264.031 1046.07 264.405 1045.9 264.884C1045.72 265.362 1045.64 265.916 1045.64 266.545C1045.64 267.18 1045.72 267.741 1045.9 268.229C1046.08 268.712 1046.34 269.09 1046.67 269.365C1047.01 269.635 1047.43 269.77 1047.93 269.77ZM1065.42 261.091V263.364H1058.85V261.091H1065.42ZM1060.34 258.477H1063.37V268.648C1063.37 268.927 1063.41 269.145 1063.49 269.301C1063.58 269.453 1063.7 269.559 1063.85 269.621C1064 269.682 1064.18 269.713 1064.39 269.713C1064.53 269.713 1064.67 269.701 1064.81 269.678C1064.96 269.649 1065.06 269.628 1065.14 269.614L1065.62 271.865C1065.46 271.912 1065.25 271.967 1064.98 272.028C1064.7 272.095 1064.37 272.135 1063.98 272.149C1063.25 272.178 1062.61 272.08 1062.06 271.858C1061.51 271.635 1061.09 271.29 1060.79 270.821C1060.48 270.352 1060.33 269.76 1060.34 269.045V258.477ZM1071.86 272.213C1070.76 272.213 1069.8 271.979 1069 271.51C1068.2 271.036 1067.58 270.378 1067.14 269.536C1066.71 268.688 1066.49 267.705 1066.49 266.588C1066.49 265.461 1066.71 264.476 1067.14 263.634C1067.58 262.786 1068.2 262.128 1069 261.659C1069.8 261.186 1070.76 260.949 1071.86 260.949C1072.96 260.949 1073.92 261.186 1074.72 261.659C1075.52 262.128 1076.14 262.786 1076.58 263.634C1077.01 264.476 1077.23 265.461 1077.23 266.588C1077.23 267.705 1077.01 268.688 1076.58 269.536C1076.14 270.378 1075.52 271.036 1074.72 271.51C1073.92 271.979 1072.96 272.213 1071.86 272.213ZM1071.87 269.869C1072.38 269.869 1072.8 269.727 1073.13 269.443C1073.47 269.154 1073.72 268.761 1073.89 268.264C1074.07 267.767 1074.15 267.201 1074.15 266.567C1074.15 265.932 1074.07 265.366 1073.89 264.869C1073.72 264.372 1073.47 263.979 1073.13 263.69C1072.8 263.402 1072.38 263.257 1071.87 263.257C1071.37 263.257 1070.94 263.402 1070.6 263.69C1070.26 263.979 1070 264.372 1069.82 264.869C1069.65 265.366 1069.57 265.932 1069.57 266.567C1069.57 267.201 1069.65 267.767 1069.82 268.264C1070 268.761 1070.26 269.154 1070.6 269.443C1070.94 269.727 1071.37 269.869 1071.87 269.869ZM1086.28 257.455V272H1083.2V257.455H1086.28ZM1091.44 265.693V272H1088.41V261.091H1091.29V263.016H1091.42C1091.66 262.381 1092.07 261.879 1092.64 261.51C1093.21 261.136 1093.89 260.949 1094.7 260.949C1095.46 260.949 1096.12 261.115 1096.69 261.446C1097.25 261.777 1097.69 262.251 1098 262.866C1098.31 263.477 1098.47 264.206 1098.47 265.054V272H1095.44V265.594C1095.45 264.926 1095.28 264.405 1094.93 264.031C1094.59 263.652 1094.11 263.463 1093.5 263.463C1093.1 263.463 1092.74 263.551 1092.42 263.726C1092.12 263.901 1091.87 264.157 1091.7 264.493C1091.53 264.824 1091.44 265.224 1091.44 265.693ZM1110.29 261.091L1106.48 272H1103.07L1099.26 261.091H1102.45L1104.72 268.896H1104.83L1107.09 261.091H1110.29ZM1116.12 272.213C1115 272.213 1114.03 271.986 1113.22 271.531C1112.42 271.072 1111.8 270.423 1111.36 269.585C1110.93 268.742 1110.71 267.746 1110.71 266.595C1110.71 265.473 1110.93 264.488 1111.36 263.641C1111.8 262.793 1112.41 262.133 1113.2 261.659C1114 261.186 1114.93 260.949 1116 260.949C1116.72 260.949 1117.39 261.065 1118.01 261.297C1118.64 261.524 1119.18 261.867 1119.64 262.327C1120.11 262.786 1120.48 263.364 1120.74 264.06C1121 264.751 1121.13 265.561 1121.13 266.489V267.32H1111.92V265.445H1118.28C1118.28 265.009 1118.19 264.623 1118 264.287C1117.81 263.951 1117.54 263.688 1117.21 263.499C1116.88 263.304 1116.49 263.207 1116.05 263.207C1115.59 263.207 1115.18 263.314 1114.83 263.527C1114.48 263.735 1114.2 264.017 1114 264.372C1113.81 264.723 1113.7 265.113 1113.7 265.544V267.327C1113.7 267.866 1113.8 268.333 1114 268.726C1114.2 269.119 1114.49 269.422 1114.86 269.635C1115.23 269.848 1115.66 269.955 1116.17 269.955C1116.51 269.955 1116.81 269.907 1117.09 269.812C1117.37 269.718 1117.61 269.576 1117.81 269.386C1118.01 269.197 1118.16 268.965 1118.27 268.69L1121.06 268.875C1120.92 269.547 1120.63 270.134 1120.19 270.636C1119.75 271.134 1119.19 271.522 1118.5 271.801C1117.81 272.076 1117.02 272.213 1116.12 272.213ZM1125.79 265.693V272H1122.76V261.091H1125.65V263.016H1125.77C1126.02 262.381 1126.42 261.879 1126.99 261.51C1127.56 261.136 1128.25 260.949 1129.05 260.949C1129.81 260.949 1130.47 261.115 1131.04 261.446C1131.6 261.777 1132.04 262.251 1132.35 262.866C1132.66 263.477 1132.82 264.206 1132.82 265.054V272H1129.79V265.594C1129.8 264.926 1129.63 264.405 1129.28 264.031C1128.94 263.652 1128.46 263.463 1127.85 263.463C1127.45 263.463 1127.09 263.551 1126.78 263.726C1126.47 263.901 1126.23 264.157 1126.05 264.493C1125.88 264.824 1125.79 265.224 1125.79 265.693ZM1140.67 261.091V263.364H1134.1V261.091H1140.67ZM1135.59 258.477H1138.61V268.648C1138.61 268.927 1138.66 269.145 1138.74 269.301C1138.83 269.453 1138.95 269.559 1139.1 269.621C1139.25 269.682 1139.43 269.713 1139.64 269.713C1139.78 269.713 1139.92 269.701 1140.06 269.678C1140.2 269.649 1140.31 269.628 1140.39 269.614L1140.87 271.865C1140.71 271.912 1140.5 271.967 1140.23 272.028C1139.95 272.095 1139.62 272.135 1139.22 272.149C1138.5 272.178 1137.86 272.08 1137.31 271.858C1136.76 271.635 1136.34 271.29 1136.04 270.821C1135.73 270.352 1135.58 269.76 1135.59 269.045V258.477ZM1147.11 272.213C1146.01 272.213 1145.05 271.979 1144.25 271.51C1143.45 271.036 1142.83 270.378 1142.39 269.536C1141.96 268.688 1141.74 267.705 1141.74 266.588C1141.74 265.461 1141.96 264.476 1142.39 263.634C1142.83 262.786 1143.45 262.128 1144.25 261.659C1145.05 261.186 1146.01 260.949 1147.11 260.949C1148.21 260.949 1149.16 261.186 1149.96 261.659C1150.77 262.128 1151.39 262.786 1151.82 263.634C1152.26 264.476 1152.48 265.461 1152.48 266.588C1152.48 267.705 1152.26 268.688 1151.82 269.536C1151.39 270.378 1150.77 271.036 1149.96 271.51C1149.16 271.979 1148.21 272.213 1147.11 272.213ZM1147.12 269.869C1147.63 269.869 1148.04 269.727 1148.38 269.443C1148.72 269.154 1148.97 268.761 1149.14 268.264C1149.32 267.767 1149.4 267.201 1149.4 266.567C1149.4 265.932 1149.32 265.366 1149.14 264.869C1148.97 264.372 1148.72 263.979 1148.38 263.69C1148.04 263.402 1147.63 263.257 1147.12 263.257C1146.62 263.257 1146.19 263.402 1145.84 263.69C1145.5 263.979 1145.25 264.372 1145.07 264.869C1144.9 265.366 1144.81 265.932 1144.81 266.567C1144.81 267.201 1144.9 267.767 1145.07 268.264C1145.25 268.761 1145.5 269.154 1145.84 269.443C1146.19 269.727 1146.62 269.869 1147.12 269.869ZM1154.11 272V261.091H1157.04V262.994H1157.15C1157.35 262.317 1157.69 261.806 1158.15 261.46C1158.62 261.11 1159.16 260.935 1159.77 260.935C1159.92 260.935 1160.09 260.944 1160.26 260.963C1160.44 260.982 1160.59 261.008 1160.72 261.041V263.726C1160.58 263.683 1160.39 263.645 1160.14 263.612C1159.88 263.579 1159.65 263.562 1159.45 263.562C1159 263.562 1158.6 263.66 1158.25 263.854C1157.91 264.043 1157.63 264.308 1157.43 264.649C1157.23 264.99 1157.13 265.383 1157.13 265.828V272H1154.11ZM1164.15 276.091C1163.77 276.091 1163.41 276.06 1163.07 275.999C1162.74 275.942 1162.46 275.868 1162.25 275.778L1162.93 273.52C1163.28 273.629 1163.6 273.688 1163.89 273.697C1164.18 273.707 1164.42 273.641 1164.63 273.499C1164.85 273.357 1165.02 273.115 1165.15 272.774L1165.33 272.312L1161.41 261.091H1164.6L1166.86 269.102H1166.97L1169.25 261.091H1172.45L1168.21 273.179C1168.01 273.766 1167.73 274.277 1167.38 274.713C1167.04 275.153 1166.6 275.492 1166.07 275.729C1165.54 275.97 1164.9 276.091 1164.15 276.091Z" fill="white"/>
<path d="M951.865 420.619V449H938.25V399.909H951.226V408.57H951.801C952.888 405.715 954.709 403.457 957.266 401.795C959.823 400.112 962.923 399.27 966.566 399.27C969.976 399.27 972.948 400.016 975.483 401.507C978.019 402.999 979.99 405.129 981.396 407.899C982.802 410.648 983.505 413.929 983.505 417.743V449H969.89V420.172C969.912 417.168 969.145 414.824 967.589 413.141C966.034 411.436 963.892 410.584 961.165 410.584C959.333 410.584 957.714 410.978 956.307 411.766C954.922 412.555 953.836 413.705 953.047 415.218C952.28 416.71 951.886 418.51 951.865 420.619ZM1014.89 449.959C1009.92 449.959 1005.63 448.904 1002.01 446.795C998.406 444.664 995.625 441.702 993.665 437.91C991.705 434.096 990.725 429.675 990.725 424.646C990.725 419.575 991.705 415.143 993.665 411.351C995.625 407.537 998.406 404.575 1002.01 402.466C1005.63 400.335 1009.92 399.27 1014.89 399.27C1019.85 399.27 1024.13 400.335 1027.73 402.466C1031.36 404.575 1034.15 407.537 1036.11 411.351C1038.07 415.143 1039.05 419.575 1039.05 424.646C1039.05 429.675 1038.07 434.096 1036.11 437.91C1034.15 441.702 1031.36 444.664 1027.73 446.795C1024.13 448.904 1019.85 449.959 1014.89 449.959ZM1014.95 439.412C1017.21 439.412 1019.09 438.773 1020.61 437.494C1022.12 436.195 1023.26 434.426 1024.03 432.189C1024.82 429.952 1025.21 427.406 1025.21 424.55C1025.21 421.695 1024.82 419.149 1024.03 416.912C1023.26 414.675 1022.12 412.906 1020.61 411.607C1019.09 410.307 1017.21 409.657 1014.95 409.657C1012.67 409.657 1010.75 410.307 1009.2 411.607C1007.66 412.906 1006.5 414.675 1005.71 416.912C1004.95 419.149 1004.56 421.695 1004.56 424.55C1004.56 427.406 1004.95 429.952 1005.71 432.189C1006.5 434.426 1007.66 436.195 1009.2 437.494C1010.75 438.773 1012.67 439.412 1014.95 439.412ZM1059.99 420.619V449H1046.37V399.909H1059.35V408.57H1059.92C1061.01 405.715 1062.83 403.457 1065.39 401.795C1067.94 400.112 1071.04 399.27 1074.69 399.27C1078.1 399.27 1081.07 400.016 1083.61 401.507C1086.14 402.999 1088.11 405.129 1089.52 407.899C1090.92 410.648 1091.63 413.929 1091.63 417.743V449H1078.01V420.172C1078.03 417.168 1077.27 414.824 1075.71 413.141C1074.16 411.436 1072.01 410.584 1069.29 410.584C1067.45 410.584 1065.84 410.978 1064.43 411.766C1063.04 412.555 1061.96 413.705 1061.17 415.218C1060.4 416.71 1060.01 418.51 1059.99 420.619ZM1123.2 449.959C1118.15 449.959 1113.8 448.936 1110.16 446.891C1106.54 444.824 1103.75 441.905 1101.79 438.134C1099.83 434.341 1098.85 429.856 1098.85 424.678C1098.85 419.629 1099.83 415.197 1101.79 411.383C1103.75 407.569 1106.51 404.597 1110.06 402.466C1113.64 400.335 1117.84 399.27 1122.66 399.27C1125.9 399.27 1128.91 399.792 1131.7 400.836C1134.51 401.859 1136.96 403.403 1139.05 405.47C1141.16 407.537 1142.8 410.136 1143.97 413.268C1145.15 416.379 1145.73 420.023 1145.73 424.199V427.938H1104.28V419.501H1132.92C1132.92 417.54 1132.49 415.804 1131.64 414.291C1130.79 412.778 1129.6 411.596 1128.09 410.744C1126.6 409.87 1124.86 409.433 1122.88 409.433C1120.81 409.433 1118.98 409.913 1117.38 410.871C1115.81 411.809 1114.57 413.077 1113.68 414.675C1112.78 416.251 1112.32 418.009 1112.3 419.948V427.97C1112.3 430.399 1112.75 432.498 1113.64 434.266C1114.56 436.035 1115.85 437.398 1117.51 438.357C1119.17 439.316 1121.14 439.795 1123.42 439.795C1124.94 439.795 1126.32 439.582 1127.58 439.156C1128.84 438.73 1129.91 438.091 1130.81 437.239C1131.7 436.386 1132.38 435.342 1132.85 434.107L1145.44 434.938C1144.8 437.963 1143.49 440.605 1141.51 442.864C1139.55 445.101 1137.02 446.848 1133.91 448.105C1130.82 449.341 1127.25 449.959 1123.2 449.959Z" fill="black"/>
</g>
<defs>
<filter id="filter0_d_2330_2" x="370" y="217" width="385" height="389" filterUnits="userSpaceOnUse" color-interpolation-filters="sRGB">
<feFlood flood-opacity="0" result="BackgroundImageFix"/>
<feColorMatrix in="SourceAlpha" type="matrix" values="0 0 0 0 0 0 0 0 0 0 0 0 0 0 0 0 0 0 127 0" result="hardAlpha"/>
<feOffset dx="4" dy="8"/>
<feGaussianBlur stdDeviation="2"/>
<feComposite in2="hardAlpha" operator="out"/>
<feColorMatrix type="matrix" values="0 0 0 0 0 0 0 0 0 0 0 0 0 0 0 0 0 0 0.25 0"/>
<feBlend mode="normal" in2="BackgroundImageFix" result="effect1_dropShadow_2330_2"/>
<feBlend mode="normal" in="SourceGraphic" in2="effect1_dropShadow_2330_2" result="shape"/>
</filter>
<filter id="filter1_d_2330_2" x="852" y="217" width="385" height="389" filterUnits="userSpaceOnUse" color-interpolation-filters="sRGB">
<feFlood flood-opacity="0" result="BackgroundImageFix"/>
<feColorMatrix in="SourceAlpha" type="matrix" values="0 0 0 0 0 0 0 0 0 0 0 0 0 0 0 0 0 0 127 0" result="hardAlpha"/>
<feOffset dx="4" dy="8"/>
<feGaussianBlur stdDeviation="2"/>
<feComposite in2="hardAlpha" operator="out"/>
<feColorMatrix type="matrix" values="0 0 0 0 0 0 0 0 0 0 0 0 0 0 0 0 0 0 0.25 0"/>
<feBlend mode="normal" in2="BackgroundImageFix" result="effect1_dropShadow_2330_2"/>
<feBlend mode="normal" in="SourceGraphic" in2="effect1_dropShadow_2330_2" result="shape"/>
</filter>
<clipPath id="clip0_2330_2">
<rect width="1440" height="1024" fill="white"/>
</clipPath>
</defs>
</svg>
