<svg width="1440" height="1024" viewBox="0 0 1440 1024" fill="none" xmlns="http://www.w3.org/2000/svg">
<g clip-path="url(#clip0_2327_14)">
<rect width="1440" height="1024" fill="white"/>
<rect width="1440" height="1024" fill="url(#paint0_linear_2327_14)"/>
<g filter="url(#filter0_d_2327_14)">
<rect x="383" y="130" width="674" height="708" rx="123" fill="#2473CF"/>
</g>
<path d="M530.045 263.364H531.455V271.068C531.455 271.864 531.267 272.574 530.892 273.199C530.521 273.82 529.996 274.311 529.318 274.67C528.64 275.027 527.845 275.205 526.932 275.205C526.019 275.205 525.223 275.027 524.545 274.67C523.867 274.311 523.341 273.82 522.966 273.199C522.595 272.574 522.409 271.864 522.409 271.068V263.364H523.818V270.955C523.818 271.523 523.943 272.028 524.193 272.472C524.443 272.911 524.799 273.258 525.261 273.511C525.727 273.761 526.284 273.886 526.932 273.886C527.58 273.886 528.136 273.761 528.602 273.511C529.068 273.258 529.424 272.911 529.67 272.472C529.92 272.028 530.045 271.523 530.045 270.955V263.364ZM540.36 266.273C540.292 265.697 540.015 265.25 539.531 264.932C539.046 264.614 538.451 264.455 537.746 264.455C537.231 264.455 536.781 264.538 536.394 264.705C536.012 264.871 535.712 265.1 535.496 265.392C535.284 265.684 535.178 266.015 535.178 266.386C535.178 266.697 535.252 266.964 535.4 267.188C535.551 267.407 535.745 267.591 535.979 267.739C536.214 267.883 536.46 268.002 536.718 268.097C536.976 268.187 537.212 268.261 537.428 268.318L538.61 268.636C538.913 268.716 539.25 268.826 539.621 268.966C539.996 269.106 540.354 269.297 540.695 269.54C541.04 269.778 541.324 270.085 541.548 270.46C541.771 270.835 541.883 271.295 541.883 271.841C541.883 272.47 541.718 273.038 541.389 273.545C541.063 274.053 540.585 274.456 539.957 274.756C539.332 275.055 538.572 275.205 537.678 275.205C536.845 275.205 536.123 275.07 535.514 274.801C534.907 274.532 534.43 274.157 534.082 273.676C533.737 273.195 533.542 272.636 533.496 272H534.951C534.989 272.439 535.137 272.803 535.394 273.091C535.656 273.375 535.985 273.587 536.383 273.727C536.784 273.864 537.216 273.932 537.678 273.932C538.216 273.932 538.699 273.845 539.127 273.67C539.555 273.492 539.894 273.246 540.144 272.932C540.394 272.614 540.519 272.242 540.519 271.818C540.519 271.432 540.411 271.117 540.195 270.875C539.979 270.633 539.695 270.436 539.343 270.284C538.991 270.133 538.61 270 538.201 269.886L536.769 269.477C535.86 269.216 535.14 268.843 534.61 268.358C534.08 267.873 533.815 267.239 533.815 266.455C533.815 265.803 533.991 265.235 534.343 264.75C534.699 264.261 535.176 263.883 535.775 263.614C536.377 263.341 537.049 263.205 537.792 263.205C538.542 263.205 539.209 263.339 539.792 263.608C540.375 263.873 540.837 264.237 541.178 264.699C541.523 265.161 541.705 265.686 541.724 266.273H540.36ZM543.928 275V263.364H550.95V264.614H545.337V268.545H550.587V269.795H545.337V273.75H551.041V275H543.928ZM553.218 275V263.364H557.15C558.059 263.364 558.805 263.519 559.389 263.83C559.972 264.136 560.404 264.559 560.684 265.097C560.964 265.634 561.104 266.246 561.104 266.932C561.104 267.617 560.964 268.225 560.684 268.756C560.404 269.286 559.974 269.703 559.394 270.006C558.815 270.305 558.074 270.455 557.173 270.455H553.991V269.182H557.127C557.748 269.182 558.248 269.091 558.627 268.909C559.01 268.727 559.286 268.47 559.457 268.136C559.631 267.799 559.718 267.398 559.718 266.932C559.718 266.466 559.631 266.059 559.457 265.71C559.282 265.362 559.004 265.093 558.622 264.903C558.239 264.71 557.733 264.614 557.104 264.614H554.627V275H553.218ZM558.695 269.773L561.559 275H559.923L557.104 269.773H558.695ZM576.636 263.364V275H575.272L568.931 265.864H568.818V275H567.408V263.364H568.772L575.136 272.523H575.249V263.364H576.636ZM579.661 275H578.183L582.456 263.364H583.911L588.183 275H586.706L583.229 265.205H583.138L579.661 275ZM580.206 270.455H586.161V271.705H580.206V270.455ZM589.724 263.364H591.406L595.36 273.023H595.497L599.451 263.364H601.133V275H599.815V266.159H599.701L596.065 275H594.792L591.156 266.159H591.042V275H589.724V263.364ZM603.686 275V263.364H610.709V264.614H605.095V268.545H610.345V269.795H605.095V273.75H610.8V275H603.686Z" fill="white"/>
<path d="M531.636 361.523V373.159H530.273L523.932 364.023H523.818V373.159H522.409V361.523H523.773L530.136 370.682H530.25V361.523H531.636ZM534.184 373.159V361.523H541.207V362.773H535.593V366.704H540.843V367.954H535.593V371.909H541.298V373.159H534.184ZM545.588 373.159L542.406 361.523H543.838L546.27 371H546.384L548.861 361.523H550.452L552.929 371H553.043L555.474 361.523H556.906L553.724 373.159H552.27L549.702 363.886H549.611L547.043 373.159H545.588ZM562.618 373.159V361.523H566.55C567.463 361.523 568.209 361.687 568.788 362.017C569.372 362.343 569.804 362.784 570.084 363.341C570.364 363.898 570.504 364.519 570.504 365.204C570.504 365.89 570.364 366.513 570.084 367.074C569.807 367.634 569.379 368.081 568.8 368.415C568.22 368.744 567.478 368.909 566.573 368.909H563.754V367.659H566.527C567.152 367.659 567.654 367.551 568.033 367.335C568.412 367.119 568.686 366.827 568.857 366.46C569.031 366.089 569.118 365.67 569.118 365.204C569.118 364.738 569.031 364.322 568.857 363.954C568.686 363.587 568.41 363.299 568.027 363.091C567.644 362.879 567.137 362.773 566.504 362.773H564.027V373.159H562.618ZM571.792 373.159H570.315L574.587 361.523H576.042L580.315 373.159H578.837L575.36 363.363H575.269L571.792 373.159ZM572.337 368.613H578.292V369.863H572.337V368.613ZM588.219 364.432C588.151 363.856 587.874 363.409 587.389 363.091C586.904 362.773 586.31 362.613 585.605 362.613C585.09 362.613 584.639 362.697 584.253 362.863C583.87 363.03 583.571 363.259 583.355 363.551C583.143 363.843 583.037 364.174 583.037 364.545C583.037 364.856 583.111 365.123 583.259 365.346C583.41 365.566 583.603 365.75 583.838 365.898C584.073 366.042 584.319 366.161 584.577 366.256C584.834 366.346 585.071 366.42 585.287 366.477L586.469 366.795C586.772 366.875 587.109 366.985 587.48 367.125C587.855 367.265 588.213 367.456 588.554 367.699C588.899 367.937 589.183 368.244 589.406 368.619C589.63 368.994 589.742 369.454 589.742 370C589.742 370.629 589.577 371.197 589.247 371.704C588.922 372.212 588.444 372.615 587.815 372.915C587.19 373.214 586.431 373.363 585.537 373.363C584.704 373.363 583.982 373.229 583.372 372.96C582.766 372.691 582.289 372.316 581.94 371.835C581.596 371.354 581.401 370.795 581.355 370.159H582.81C582.848 370.598 582.995 370.962 583.253 371.25C583.514 371.534 583.844 371.746 584.242 371.886C584.643 372.023 585.075 372.091 585.537 372.091C586.075 372.091 586.558 372.004 586.986 371.829C587.414 371.651 587.753 371.405 588.003 371.091C588.253 370.773 588.378 370.401 588.378 369.977C588.378 369.591 588.27 369.276 588.054 369.034C587.838 368.792 587.554 368.595 587.202 368.443C586.85 368.292 586.469 368.159 586.06 368.045L584.628 367.636C583.719 367.375 582.999 367.002 582.469 366.517C581.939 366.032 581.673 365.398 581.673 364.613C581.673 363.962 581.85 363.394 582.202 362.909C582.558 362.42 583.035 362.042 583.634 361.773C584.236 361.5 584.908 361.363 585.651 361.363C586.401 361.363 587.067 361.498 587.651 361.767C588.234 362.032 588.696 362.396 589.037 362.858C589.382 363.32 589.564 363.845 589.582 364.432H588.219ZM598.15 364.432C598.082 363.856 597.805 363.409 597.32 363.091C596.836 362.773 596.241 362.613 595.536 362.613C595.021 362.613 594.57 362.697 594.184 362.863C593.801 363.03 593.502 363.259 593.286 363.551C593.074 363.843 592.968 364.174 592.968 364.545C592.968 364.856 593.042 365.123 593.19 365.346C593.341 365.566 593.534 365.75 593.769 365.898C594.004 366.042 594.25 366.161 594.508 366.256C594.766 366.346 595.002 366.42 595.218 366.477L596.4 366.795C596.703 366.875 597.04 366.985 597.411 367.125C597.786 367.265 598.144 367.456 598.485 367.699C598.83 367.937 599.114 368.244 599.337 368.619C599.561 368.994 599.673 369.454 599.673 370C599.673 370.629 599.508 371.197 599.178 371.704C598.853 372.212 598.375 372.615 597.747 372.915C597.122 373.214 596.362 373.363 595.468 373.363C594.635 373.363 593.913 373.229 593.303 372.96C592.697 372.691 592.22 372.316 591.872 371.835C591.527 371.354 591.332 370.795 591.286 370.159H592.741C592.779 370.598 592.926 370.962 593.184 371.25C593.445 371.534 593.775 371.746 594.173 371.886C594.574 372.023 595.006 372.091 595.468 372.091C596.006 372.091 596.489 372.004 596.917 371.829C597.345 371.651 597.684 371.405 597.934 371.091C598.184 370.773 598.309 370.401 598.309 369.977C598.309 369.591 598.201 369.276 597.985 369.034C597.769 368.792 597.485 368.595 597.133 368.443C596.781 368.292 596.4 368.159 595.991 368.045L594.559 367.636C593.65 367.375 592.93 367.002 592.4 366.517C591.87 366.032 591.605 365.398 591.605 364.613C591.605 363.962 591.781 363.394 592.133 362.909C592.489 362.42 592.966 362.042 593.565 361.773C594.167 361.5 594.839 361.363 595.582 361.363C596.332 361.363 596.998 361.498 597.582 361.767C598.165 362.032 598.627 362.396 598.968 362.858C599.313 363.32 599.495 363.845 599.514 364.432H598.15ZM603.831 373.159L600.649 361.523H602.081L604.513 371H604.627L607.104 361.523H608.695L611.172 371H611.286L613.717 361.523H615.149L611.967 373.159H610.513L607.945 363.886H607.854L605.286 373.159H603.831ZM625.904 367.341C625.904 368.568 625.683 369.629 625.24 370.523C624.796 371.417 624.188 372.106 623.416 372.591C622.643 373.076 621.76 373.318 620.768 373.318C619.775 373.318 618.893 373.076 618.12 372.591C617.347 372.106 616.74 371.417 616.296 370.523C615.853 369.629 615.632 368.568 615.632 367.341C615.632 366.113 615.853 365.053 616.296 364.159C616.74 363.265 617.347 362.576 618.12 362.091C618.893 361.606 619.775 361.363 620.768 361.363C621.76 361.363 622.643 361.606 623.416 362.091C624.188 362.576 624.796 363.265 625.24 364.159C625.683 365.053 625.904 366.113 625.904 367.341ZM624.541 367.341C624.541 366.333 624.372 365.483 624.035 364.79C623.702 364.096 623.249 363.572 622.677 363.216C622.109 362.86 621.472 362.682 620.768 362.682C620.063 362.682 619.425 362.86 618.853 363.216C618.285 363.572 617.832 364.096 617.495 364.79C617.162 365.483 616.995 366.333 616.995 367.341C616.995 368.348 617.162 369.199 617.495 369.892C617.832 370.585 618.285 371.11 618.853 371.466C619.425 371.822 620.063 372 620.768 372C621.472 372 622.109 371.822 622.677 371.466C623.249 371.11 623.702 370.585 624.035 369.892C624.372 369.199 624.541 368.348 624.541 367.341ZM628.002 373.159V361.523H631.933C632.842 361.523 633.589 361.678 634.172 361.988C634.755 362.295 635.187 362.718 635.467 363.256C635.748 363.793 635.888 364.405 635.888 365.091C635.888 365.776 635.748 366.384 635.467 366.915C635.187 367.445 634.757 367.862 634.178 368.165C633.598 368.464 632.858 368.613 631.956 368.613H628.774V367.341H631.911C632.532 367.341 633.032 367.25 633.411 367.068C633.793 366.886 634.07 366.629 634.24 366.295C634.414 365.958 634.502 365.557 634.502 365.091C634.502 364.625 634.414 364.218 634.24 363.869C634.066 363.521 633.788 363.252 633.405 363.062C633.022 362.869 632.517 362.773 631.888 362.773H629.411V373.159H628.002ZM633.479 367.932L636.342 373.159H634.706L631.888 367.932H633.479ZM641.555 373.159H637.964V361.523H641.714C642.843 361.523 643.809 361.756 644.612 362.221C645.415 362.684 646.03 363.348 646.458 364.216C646.886 365.079 647.1 366.113 647.1 367.318C647.1 368.53 646.884 369.574 646.453 370.449C646.021 371.32 645.392 371.99 644.566 372.46C643.74 372.926 642.737 373.159 641.555 373.159ZM639.373 371.909H641.464C642.426 371.909 643.223 371.723 643.856 371.352C644.489 370.981 644.96 370.452 645.271 369.767C645.581 369.081 645.737 368.265 645.737 367.318C645.737 366.379 645.583 365.57 645.276 364.892C644.97 364.21 644.511 363.687 643.901 363.324C643.292 362.956 642.532 362.773 641.623 362.773H639.373V371.909Z" fill="white"/>
<path d="M531.773 479.06H530.364C530.28 478.655 530.134 478.299 529.926 477.992C529.722 477.685 529.472 477.428 529.176 477.219C528.884 477.007 528.561 476.848 528.205 476.742C527.848 476.636 527.477 476.583 527.091 476.583C526.386 476.583 525.748 476.761 525.176 477.117C524.608 477.473 524.155 477.998 523.818 478.691C523.485 479.384 523.318 480.235 523.318 481.242C523.318 482.25 523.485 483.1 523.818 483.793C524.155 484.486 524.608 485.011 525.176 485.367C525.748 485.723 526.386 485.901 527.091 485.901C527.477 485.901 527.848 485.848 528.205 485.742C528.561 485.636 528.884 485.479 529.176 485.271C529.472 485.058 529.722 484.799 529.926 484.492C530.134 484.182 530.28 483.825 530.364 483.424H531.773C531.667 484.019 531.473 484.551 531.193 485.021C530.913 485.49 530.564 485.89 530.148 486.219C529.731 486.545 529.263 486.793 528.744 486.964C528.229 487.134 527.678 487.219 527.091 487.219C526.098 487.219 525.216 486.977 524.443 486.492C523.67 486.007 523.063 485.318 522.619 484.424C522.176 483.53 521.955 482.469 521.955 481.242C521.955 480.015 522.176 478.954 522.619 478.06C523.063 477.166 523.67 476.477 524.443 475.992C525.216 475.507 526.098 475.265 527.091 475.265C527.678 475.265 528.229 475.35 528.744 475.521C529.263 475.691 529.731 475.941 530.148 476.271C530.564 476.596 530.913 476.994 531.193 477.464C531.473 477.93 531.667 478.462 531.773 479.06ZM543.596 481.242C543.596 482.469 543.374 483.53 542.931 484.424C542.488 485.318 541.88 486.007 541.107 486.492C540.335 486.977 539.452 487.219 538.46 487.219C537.467 487.219 536.585 486.977 535.812 486.492C535.039 486.007 534.431 485.318 533.988 484.424C533.545 483.53 533.323 482.469 533.323 481.242C533.323 480.015 533.545 478.954 533.988 478.06C534.431 477.166 535.039 476.477 535.812 475.992C536.585 475.507 537.467 475.265 538.46 475.265C539.452 475.265 540.335 475.507 541.107 475.992C541.88 476.477 542.488 477.166 542.931 478.06C543.374 478.954 543.596 480.015 543.596 481.242ZM542.232 481.242C542.232 480.235 542.064 479.384 541.727 478.691C541.393 477.998 540.941 477.473 540.369 477.117C539.8 476.761 539.164 476.583 538.46 476.583C537.755 476.583 537.117 476.761 536.545 477.117C535.977 477.473 535.524 477.998 535.187 478.691C534.853 479.384 534.687 480.235 534.687 481.242C534.687 482.25 534.853 483.1 535.187 483.793C535.524 484.486 535.977 485.011 536.545 485.367C537.117 485.723 537.755 485.901 538.46 485.901C539.164 485.901 539.8 485.723 540.369 485.367C540.941 485.011 541.393 484.486 541.727 483.793C542.064 483.1 542.232 482.25 542.232 481.242ZM554.92 475.424V487.06H553.557L547.216 477.924H547.102V487.06H545.693V475.424H547.057L553.42 484.583H553.534V475.424H554.92ZM557.468 487.06V475.424H564.445V476.674H558.877V480.606H563.923V481.856H558.877V487.06H557.468ZM567.996 475.424V487.06H566.587V475.424H567.996ZM570.549 487.06V475.424H574.481C575.39 475.424 576.136 475.579 576.72 475.89C577.303 476.197 577.735 476.619 578.015 477.157C578.295 477.695 578.435 478.307 578.435 478.992C578.435 479.678 578.295 480.286 578.015 480.816C577.735 481.346 577.305 481.763 576.725 482.066C576.146 482.365 575.405 482.515 574.504 482.515H571.322V481.242H574.458C575.079 481.242 575.579 481.151 575.958 480.969C576.341 480.788 576.617 480.53 576.788 480.197C576.962 479.86 577.049 479.458 577.049 478.992C577.049 478.526 576.962 478.119 576.788 477.771C576.613 477.422 576.335 477.153 575.952 476.964C575.57 476.771 575.064 476.674 574.435 476.674H571.958V487.06H570.549ZM576.026 481.833L578.89 487.06H577.254L574.435 481.833H576.026ZM580.511 475.424H582.193L586.148 485.083H586.284L590.239 475.424H591.921V487.06H590.602V478.219H590.489L586.852 487.06H585.58L581.943 478.219H581.83V487.06H580.511V475.424ZM598.702 487.06V475.424H602.634C603.547 475.424 604.293 475.589 604.872 475.918C605.456 476.244 605.887 476.685 606.168 477.242C606.448 477.799 606.588 478.42 606.588 479.106C606.588 479.791 606.448 480.414 606.168 480.975C605.891 481.536 605.463 481.983 604.884 482.316C604.304 482.646 603.562 482.81 602.656 482.81H599.838V481.56H602.611C603.236 481.56 603.738 481.452 604.117 481.236C604.495 481.021 604.77 480.729 604.94 480.361C605.115 479.99 605.202 479.572 605.202 479.106C605.202 478.64 605.115 478.223 604.94 477.856C604.77 477.488 604.494 477.2 604.111 476.992C603.728 476.78 603.221 476.674 602.588 476.674H600.111V487.06H598.702ZM607.876 487.06H606.399L610.671 475.424H612.126L616.399 487.06H614.921L611.444 477.265H611.353L607.876 487.06ZM608.421 482.515H614.376V483.765H608.421V482.515ZM624.303 478.333C624.235 477.757 623.958 477.31 623.473 476.992C622.988 476.674 622.394 476.515 621.689 476.515C621.174 476.515 620.723 476.598 620.337 476.765C619.954 476.932 619.655 477.161 619.439 477.452C619.227 477.744 619.121 478.075 619.121 478.447C619.121 478.757 619.195 479.024 619.342 479.248C619.494 479.467 619.687 479.651 619.922 479.799C620.157 479.943 620.403 480.062 620.661 480.157C620.918 480.248 621.155 480.322 621.371 480.378L622.553 480.697C622.856 480.776 623.193 480.886 623.564 481.026C623.939 481.166 624.297 481.358 624.638 481.6C624.983 481.839 625.267 482.146 625.49 482.521C625.714 482.896 625.825 483.356 625.825 483.901C625.825 484.53 625.661 485.098 625.331 485.606C625.005 486.113 624.528 486.517 623.899 486.816C623.274 487.115 622.515 487.265 621.621 487.265C620.788 487.265 620.066 487.13 619.456 486.861C618.85 486.592 618.373 486.217 618.024 485.736C617.68 485.255 617.485 484.697 617.439 484.06H618.894C618.932 484.5 619.079 484.863 619.337 485.151C619.598 485.435 619.928 485.647 620.325 485.788C620.727 485.924 621.159 485.992 621.621 485.992C622.159 485.992 622.642 485.905 623.07 485.731C623.498 485.553 623.837 485.307 624.087 484.992C624.337 484.674 624.462 484.303 624.462 483.878C624.462 483.492 624.354 483.178 624.138 482.935C623.922 482.693 623.638 482.496 623.286 482.344C622.933 482.193 622.553 482.06 622.144 481.947L620.712 481.538C619.803 481.276 619.083 480.903 618.553 480.418C618.022 479.933 617.757 479.299 617.757 478.515C617.757 477.863 617.933 477.295 618.286 476.81C618.642 476.322 619.119 475.943 619.717 475.674C620.32 475.401 620.992 475.265 621.735 475.265C622.485 475.265 623.151 475.399 623.735 475.668C624.318 475.933 624.78 476.297 625.121 476.759C625.466 477.221 625.647 477.746 625.666 478.333H624.303ZM634.234 478.333C634.166 477.757 633.889 477.31 633.404 476.992C632.919 476.674 632.325 476.515 631.62 476.515C631.105 476.515 630.654 476.598 630.268 476.765C629.885 476.932 629.586 477.161 629.37 477.452C629.158 477.744 629.052 478.075 629.052 478.447C629.052 478.757 629.126 479.024 629.274 479.248C629.425 479.467 629.618 479.651 629.853 479.799C630.088 479.943 630.334 480.062 630.592 480.157C630.849 480.248 631.086 480.322 631.302 480.378L632.484 480.697C632.787 480.776 633.124 480.886 633.495 481.026C633.87 481.166 634.228 481.358 634.569 481.6C634.914 481.839 635.198 482.146 635.421 482.521C635.645 482.896 635.757 483.356 635.757 483.901C635.757 484.53 635.592 485.098 635.262 485.606C634.937 486.113 634.459 486.517 633.83 486.816C633.205 487.115 632.446 487.265 631.552 487.265C630.719 487.265 629.997 487.13 629.387 486.861C628.781 486.592 628.304 486.217 627.955 485.736C627.611 485.255 627.416 484.697 627.37 484.06H628.825C628.863 484.5 629.01 484.863 629.268 485.151C629.529 485.435 629.859 485.647 630.257 485.788C630.658 485.924 631.09 485.992 631.552 485.992C632.09 485.992 632.573 485.905 633.001 485.731C633.429 485.553 633.768 485.307 634.018 484.992C634.268 484.674 634.393 484.303 634.393 483.878C634.393 483.492 634.285 483.178 634.069 482.935C633.853 482.693 633.569 482.496 633.217 482.344C632.865 482.193 632.484 482.06 632.075 481.947L630.643 481.538C629.734 481.276 629.014 480.903 628.484 480.418C627.954 479.933 627.688 479.299 627.688 478.515C627.688 477.863 627.865 477.295 628.217 476.81C628.573 476.322 629.05 475.943 629.649 475.674C630.251 475.401 630.923 475.265 631.666 475.265C632.416 475.265 633.082 475.399 633.666 475.668C634.249 475.933 634.711 476.297 635.052 476.759C635.397 477.221 635.579 477.746 635.597 478.333H634.234ZM639.915 487.06L636.733 475.424H638.165L640.597 484.901H640.71L643.188 475.424H644.779L647.256 484.901H647.37L649.801 475.424H651.233L648.051 487.06H646.597L644.029 477.788H643.938L641.37 487.06H639.915ZM661.988 481.242C661.988 482.469 661.767 483.53 661.323 484.424C660.88 485.318 660.272 486.007 659.5 486.492C658.727 486.977 657.844 487.219 656.852 487.219C655.859 487.219 654.977 486.977 654.204 486.492C653.431 486.007 652.823 485.318 652.38 484.424C651.937 483.53 651.715 482.469 651.715 481.242C651.715 480.015 651.937 478.954 652.38 478.06C652.823 477.166 653.431 476.477 654.204 475.992C654.977 475.507 655.859 475.265 656.852 475.265C657.844 475.265 658.727 475.507 659.5 475.992C660.272 476.477 660.88 477.166 661.323 478.06C661.767 478.954 661.988 480.015 661.988 481.242ZM660.625 481.242C660.625 480.235 660.456 479.384 660.119 478.691C659.786 477.998 659.333 477.473 658.761 477.117C658.193 476.761 657.556 476.583 656.852 476.583C656.147 476.583 655.509 476.761 654.937 477.117C654.369 477.473 653.916 477.998 653.579 478.691C653.246 479.384 653.079 480.235 653.079 481.242C653.079 482.25 653.246 483.1 653.579 483.793C653.916 484.486 654.369 485.011 654.937 485.367C655.509 485.723 656.147 485.901 656.852 485.901C657.556 485.901 658.193 485.723 658.761 485.367C659.333 485.011 659.786 484.486 660.119 483.793C660.456 483.1 660.625 482.25 660.625 481.242ZM664.085 487.06V475.424H668.017C668.926 475.424 669.673 475.579 670.256 475.89C670.839 476.197 671.271 476.619 671.551 477.157C671.832 477.695 671.972 478.307 671.972 478.992C671.972 479.678 671.832 480.286 671.551 480.816C671.271 481.346 670.841 481.763 670.262 482.066C669.682 482.365 668.942 482.515 668.04 482.515H664.858V481.242H667.995C668.616 481.242 669.116 481.151 669.495 480.969C669.877 480.788 670.154 480.53 670.324 480.197C670.498 479.86 670.585 479.458 670.585 478.992C670.585 478.526 670.498 478.119 670.324 477.771C670.15 477.422 669.871 477.153 669.489 476.964C669.106 476.771 668.601 476.674 667.972 476.674H665.495V487.06H664.085ZM669.563 481.833L672.426 487.06H670.79L667.972 481.833H669.563ZM677.639 487.06H674.048V475.424H677.798C678.927 475.424 679.893 475.657 680.696 476.123C681.499 476.585 682.114 477.25 682.542 478.117C682.97 478.981 683.184 480.015 683.184 481.219C683.184 482.432 682.968 483.475 682.536 484.35C682.105 485.221 681.476 485.892 680.65 486.361C679.824 486.827 678.821 487.06 677.639 487.06ZM675.457 485.81H677.548C678.51 485.81 679.307 485.625 679.94 485.253C680.572 484.882 681.044 484.354 681.355 483.668C681.665 482.983 681.821 482.166 681.821 481.219C681.821 480.28 681.667 479.471 681.36 478.793C681.054 478.111 680.595 477.589 679.985 477.225C679.375 476.858 678.616 476.674 677.707 476.674H675.457V485.81Z" fill="white"/>
<path d="M522.409 585.219V573.583H529.432V574.833H523.818V578.765H529.068V580.015H523.818V583.969H529.523V585.219H522.409ZM531.7 573.583H533.381L537.336 583.242H537.472L541.427 573.583H543.109V585.219H541.79V576.378H541.677L538.04 585.219H536.768L533.131 576.378H533.018V585.219H531.7V573.583ZM546.139 585.219H544.662L548.935 573.583H550.389L554.662 585.219H553.185L549.707 575.424H549.617L546.139 585.219ZM546.685 580.674H552.639V581.924H546.685V580.674ZM557.612 573.583V585.219H556.202V573.583H557.612ZM560.165 585.219V573.583H561.574V583.969H566.983V585.219H560.165Z" fill="white"/>
<path d="M628.883 194.184H624.995C624.924 193.681 624.779 193.234 624.56 192.843C624.341 192.446 624.06 192.109 623.717 191.831C623.373 191.553 622.977 191.34 622.527 191.192C622.083 191.044 621.601 190.97 621.08 190.97C620.139 190.97 619.319 191.204 618.621 191.671C617.922 192.133 617.381 192.808 616.996 193.695C616.611 194.577 616.419 195.648 616.419 196.909C616.419 198.205 616.611 199.294 616.996 200.176C617.387 201.058 617.931 201.724 618.63 202.174C619.328 202.623 620.136 202.848 621.053 202.848C621.568 202.848 622.045 202.78 622.483 202.644C622.926 202.508 623.32 202.31 623.663 202.049C624.007 201.783 624.291 201.46 624.516 201.082C624.746 200.703 624.906 200.271 624.995 199.786L628.883 199.803C628.783 200.638 628.531 201.443 628.129 202.218C627.732 202.987 627.197 203.677 626.522 204.287C625.853 204.89 625.054 205.37 624.125 205.725C623.202 206.074 622.157 206.249 620.991 206.249C619.369 206.249 617.919 205.882 616.641 205.148C615.368 204.414 614.362 203.351 613.622 201.961C612.889 200.57 612.522 198.886 612.522 196.909C612.522 194.926 612.894 193.24 613.64 191.849C614.386 190.458 615.398 189.398 616.676 188.67C617.955 187.937 619.393 187.57 620.991 187.57C622.045 187.57 623.021 187.718 623.921 188.013C624.826 188.309 625.628 188.741 626.327 189.31C627.025 189.872 627.593 190.561 628.031 191.378C628.475 192.195 628.759 193.13 628.883 194.184ZM631.144 206V192.364H634.811V194.743H634.953C635.201 193.897 635.618 193.257 636.204 192.825C636.79 192.387 637.465 192.168 638.229 192.168C638.418 192.168 638.622 192.18 638.841 192.204C639.06 192.228 639.252 192.26 639.418 192.301V195.657C639.241 195.604 638.995 195.557 638.681 195.515C638.368 195.474 638.081 195.453 637.82 195.453C637.264 195.453 636.767 195.574 636.329 195.817C635.897 196.054 635.553 196.385 635.299 196.811C635.05 197.238 634.926 197.729 634.926 198.285V206H631.144ZM646.528 206.266C645.126 206.266 643.918 205.982 642.906 205.414C641.9 204.84 641.125 204.029 640.58 202.982C640.036 201.928 639.763 200.682 639.763 199.244C639.763 197.841 640.036 196.61 640.58 195.551C641.125 194.491 641.891 193.666 642.879 193.074C643.874 192.482 645.04 192.186 646.377 192.186C647.277 192.186 648.114 192.331 648.89 192.621C649.671 192.905 650.352 193.334 650.932 193.908C651.518 194.482 651.973 195.205 652.299 196.075C652.624 196.939 652.787 197.951 652.787 199.111V200.15H641.273V197.806H649.227C649.227 197.261 649.109 196.779 648.872 196.359C648.635 195.938 648.307 195.61 647.887 195.373C647.472 195.131 646.99 195.009 646.439 195.009C645.865 195.009 645.356 195.142 644.912 195.409C644.474 195.669 644.131 196.021 643.883 196.465C643.634 196.903 643.507 197.391 643.501 197.93V200.158C643.501 200.833 643.625 201.416 643.874 201.907C644.128 202.399 644.486 202.777 644.948 203.044C645.41 203.31 645.957 203.443 646.59 203.443C647.011 203.443 647.395 203.384 647.744 203.266C648.094 203.147 648.393 202.97 648.641 202.733C648.89 202.496 649.079 202.206 649.209 201.863L652.707 202.094C652.53 202.934 652.166 203.668 651.615 204.295C651.071 204.917 650.366 205.402 649.502 205.751C648.644 206.095 647.653 206.266 646.528 206.266ZM658.719 206.257C657.849 206.257 657.073 206.107 656.393 205.805C655.712 205.497 655.173 205.044 654.777 204.446C654.386 203.843 654.191 203.091 654.191 202.191C654.191 201.434 654.33 200.798 654.608 200.283C654.886 199.768 655.265 199.353 655.745 199.04C656.224 198.726 656.768 198.489 657.378 198.33C657.994 198.17 658.639 198.057 659.313 197.992C660.107 197.909 660.746 197.832 661.231 197.761C661.716 197.684 662.069 197.572 662.288 197.424C662.507 197.276 662.616 197.057 662.616 196.767V196.714C662.616 196.152 662.438 195.717 662.083 195.409C661.734 195.101 661.237 194.947 660.592 194.947C659.911 194.947 659.37 195.098 658.967 195.4C658.565 195.696 658.298 196.069 658.168 196.518L654.67 196.234C654.848 195.406 655.197 194.69 655.718 194.086C656.239 193.476 656.911 193.009 657.733 192.683C658.562 192.352 659.521 192.186 660.61 192.186C661.367 192.186 662.092 192.275 662.785 192.452C663.483 192.63 664.102 192.905 664.64 193.278C665.185 193.651 665.614 194.13 665.927 194.716C666.241 195.296 666.398 195.992 666.398 196.803V206H662.811V204.109H662.705C662.486 204.535 662.193 204.911 661.826 205.237C661.459 205.556 661.018 205.808 660.503 205.991C659.988 206.169 659.393 206.257 658.719 206.257ZM659.802 203.647C660.358 203.647 660.849 203.538 661.275 203.319C661.702 203.094 662.036 202.792 662.279 202.413C662.521 202.035 662.643 201.605 662.643 201.126V199.679C662.524 199.756 662.362 199.827 662.154 199.892C661.953 199.951 661.725 200.007 661.471 200.061C661.216 200.108 660.962 200.152 660.707 200.194C660.453 200.229 660.222 200.262 660.015 200.292C659.571 200.357 659.183 200.46 658.852 200.602C658.52 200.744 658.263 200.937 658.079 201.179C657.896 201.416 657.804 201.712 657.804 202.067C657.804 202.582 657.991 202.976 658.364 203.248C658.742 203.514 659.222 203.647 659.802 203.647ZM676.16 192.364V195.205H667.948V192.364H676.16ZM669.813 189.097H673.595V201.81C673.595 202.159 673.648 202.431 673.754 202.626C673.861 202.816 674.009 202.949 674.198 203.026C674.394 203.103 674.618 203.141 674.873 203.141C675.051 203.141 675.228 203.127 675.406 203.097C675.583 203.061 675.719 203.035 675.814 203.017L676.409 205.831C676.219 205.891 675.953 205.959 675.61 206.036C675.267 206.118 674.849 206.169 674.358 206.186C673.447 206.222 672.648 206.101 671.961 205.822C671.28 205.544 670.751 205.112 670.372 204.526C669.993 203.94 669.807 203.201 669.813 202.307V189.097ZM684.267 206.266C682.864 206.266 681.657 205.982 680.645 205.414C679.639 204.84 678.863 204.029 678.319 202.982C677.774 201.928 677.502 200.682 677.502 199.244C677.502 197.841 677.774 196.61 678.319 195.551C678.863 194.491 679.63 193.666 680.618 193.074C681.612 192.482 682.778 192.186 684.116 192.186C685.016 192.186 685.853 192.331 686.628 192.621C687.41 192.905 688.09 193.334 688.67 193.908C689.256 194.482 689.712 195.205 690.037 196.075C690.363 196.939 690.526 197.951 690.526 199.111V200.15H679.011V197.806H686.966C686.966 197.261 686.847 196.779 686.611 196.359C686.374 195.938 686.045 195.61 685.625 195.373C685.211 195.131 684.729 195.009 684.178 195.009C683.604 195.009 683.095 195.142 682.651 195.409C682.213 195.669 681.87 196.021 681.621 196.465C681.373 196.903 681.245 197.391 681.24 197.93V200.158C681.24 200.833 681.364 201.416 681.612 201.907C681.867 202.399 682.225 202.777 682.687 203.044C683.148 203.31 683.696 203.443 684.329 203.443C684.749 203.443 685.134 203.384 685.483 203.266C685.832 203.147 686.131 202.97 686.38 202.733C686.628 202.496 686.818 202.206 686.948 201.863L690.446 202.094C690.268 202.934 689.904 203.668 689.354 204.295C688.809 204.917 688.105 205.402 687.241 205.751C686.383 206.095 685.391 206.266 684.267 206.266ZM701.818 206.257C700.948 206.257 700.173 206.107 699.492 205.805C698.812 205.497 698.273 205.044 697.877 204.446C697.486 203.843 697.291 203.091 697.291 202.191C697.291 201.434 697.43 200.798 697.708 200.283C697.986 199.768 698.365 199.353 698.844 199.04C699.324 198.726 699.868 198.489 700.478 198.33C701.093 198.17 701.739 198.057 702.413 197.992C703.206 197.909 703.846 197.832 704.331 197.761C704.816 197.684 705.168 197.572 705.387 197.424C705.606 197.276 705.716 197.057 705.716 196.767V196.714C705.716 196.152 705.538 195.717 705.183 195.409C704.834 195.101 704.337 194.947 703.692 194.947C703.011 194.947 702.469 195.098 702.067 195.4C701.665 195.696 701.398 196.069 701.268 196.518L697.77 196.234C697.948 195.406 698.297 194.69 698.818 194.086C699.339 193.476 700.01 193.009 700.833 192.683C701.662 192.352 702.62 192.186 703.709 192.186C704.467 192.186 705.192 192.275 705.884 192.452C706.583 192.63 707.201 192.905 707.74 193.278C708.284 193.651 708.714 194.13 709.027 194.716C709.341 195.296 709.498 195.992 709.498 196.803V206H705.911V204.109H705.805C705.586 204.535 705.293 204.911 704.926 205.237C704.559 205.556 704.118 205.808 703.603 205.991C703.088 206.169 702.493 206.257 701.818 206.257ZM702.902 203.647C703.458 203.647 703.949 203.538 704.375 203.319C704.801 203.094 705.136 202.792 705.378 202.413C705.621 202.035 705.742 201.605 705.742 201.126V199.679C705.624 199.756 705.461 199.827 705.254 199.892C705.053 199.951 704.825 200.007 704.571 200.061C704.316 200.108 704.062 200.152 703.807 200.194C703.553 200.229 703.322 200.262 703.115 200.292C702.671 200.357 702.283 200.46 701.952 200.602C701.62 200.744 701.363 200.937 701.179 201.179C700.996 201.416 700.904 201.712 700.904 202.067C700.904 202.582 701.09 202.976 701.463 203.248C701.842 203.514 702.322 203.647 702.902 203.647ZM715.789 198.116V206H712.007V192.364H715.611V194.77H715.771C716.073 193.976 716.579 193.349 717.289 192.887C717.999 192.42 718.861 192.186 719.873 192.186C720.82 192.186 721.645 192.393 722.35 192.808C723.054 193.222 723.601 193.814 723.992 194.583C724.383 195.347 724.578 196.258 724.578 197.317V206H720.796V197.992C720.802 197.158 720.589 196.507 720.157 196.039C719.725 195.566 719.13 195.329 718.372 195.329C717.863 195.329 717.413 195.438 717.023 195.657C716.638 195.876 716.336 196.196 716.117 196.616C715.904 197.03 715.795 197.531 715.789 198.116ZM735.7 206H731.58L737.857 187.818H742.811L749.079 206H744.959L740.405 191.973H740.263L735.7 206ZM735.442 198.853H745.172V201.854H735.442V198.853ZM756.297 206.266C754.901 206.266 753.699 205.97 752.693 205.379C751.693 204.781 750.923 203.952 750.385 202.893C749.852 201.833 749.586 200.614 749.586 199.235C749.586 197.838 749.855 196.613 750.394 195.56C750.938 194.5 751.711 193.675 752.711 193.083C753.711 192.485 754.901 192.186 756.28 192.186C757.469 192.186 758.511 192.402 759.405 192.834C760.298 193.266 761.006 193.873 761.526 194.654C762.047 195.435 762.334 196.353 762.388 197.406H758.819C758.718 196.726 758.452 196.178 758.02 195.764C757.594 195.344 757.034 195.134 756.342 195.134C755.756 195.134 755.244 195.293 754.806 195.613C754.374 195.927 754.037 196.385 753.794 196.989C753.551 197.593 753.43 198.324 753.43 199.182C753.43 200.052 753.548 200.792 753.785 201.401C754.028 202.011 754.368 202.475 754.806 202.795C755.244 203.115 755.756 203.275 756.342 203.275C756.774 203.275 757.162 203.186 757.505 203.008C757.854 202.831 758.141 202.573 758.366 202.236C758.597 201.893 758.748 201.481 758.819 201.002H762.388C762.328 202.043 762.044 202.961 761.535 203.754C761.032 204.541 760.337 205.157 759.449 205.6C758.561 206.044 757.511 206.266 756.297 206.266ZM770.545 206.266C769.148 206.266 767.947 205.97 766.941 205.379C765.941 204.781 765.171 203.952 764.633 202.893C764.1 201.833 763.834 200.614 763.834 199.235C763.834 197.838 764.103 196.613 764.641 195.56C765.186 194.5 765.958 193.675 766.959 193.083C767.959 192.485 769.148 192.186 770.528 192.186C771.717 192.186 772.759 192.402 773.653 192.834C774.546 193.266 775.253 193.873 775.774 194.654C776.295 195.435 776.582 196.353 776.635 197.406H773.067C772.966 196.726 772.7 196.178 772.268 195.764C771.841 195.344 771.282 195.134 770.59 195.134C770.004 195.134 769.492 195.293 769.054 195.613C768.622 195.927 768.284 196.385 768.042 196.989C767.799 197.593 767.678 198.324 767.678 199.182C767.678 200.052 767.796 200.792 768.033 201.401C768.275 202.011 768.616 202.475 769.054 202.795C769.492 203.115 770.004 203.275 770.59 203.275C771.022 203.275 771.409 203.186 771.753 203.008C772.102 202.831 772.389 202.573 772.614 202.236C772.845 201.893 772.996 201.481 773.067 201.002H776.635C776.576 202.043 776.292 202.961 775.783 203.754C775.28 204.541 774.585 205.157 773.697 205.6C772.809 206.044 771.759 206.266 770.545 206.266ZM784.793 206.266C783.414 206.266 782.222 205.973 781.215 205.387C780.215 204.796 779.443 203.973 778.898 202.919C778.354 201.86 778.081 200.632 778.081 199.235C778.081 197.826 778.354 196.595 778.898 195.542C779.443 194.482 780.215 193.66 781.215 193.074C782.222 192.482 783.414 192.186 784.793 192.186C786.172 192.186 787.362 192.482 788.362 193.074C789.368 193.66 790.143 194.482 790.688 195.542C791.233 196.595 791.505 197.826 791.505 199.235C791.505 200.632 791.233 201.86 790.688 202.919C790.143 203.973 789.368 204.796 788.362 205.387C787.362 205.973 786.172 206.266 784.793 206.266ZM784.811 203.337C785.438 203.337 785.962 203.159 786.382 202.804C786.802 202.443 787.119 201.952 787.332 201.33C787.551 200.709 787.661 200.002 787.661 199.208C787.661 198.415 787.551 197.708 787.332 197.087C787.119 196.465 786.802 195.974 786.382 195.613C785.962 195.252 785.438 195.071 784.811 195.071C784.178 195.071 783.645 195.252 783.213 195.613C782.787 195.974 782.464 196.465 782.245 197.087C782.032 197.708 781.926 198.415 781.926 199.208C781.926 200.002 782.032 200.709 782.245 201.33C782.464 201.952 782.787 202.443 783.213 202.804C783.645 203.159 784.178 203.337 784.811 203.337ZM802.284 200.194V192.364H806.066V206H802.435V203.523H802.292C801.985 204.322 801.473 204.964 800.757 205.45C800.046 205.935 799.179 206.178 798.155 206.178C797.244 206.178 796.442 205.97 795.75 205.556C795.057 205.142 794.515 204.553 794.125 203.789C793.74 203.026 793.545 202.112 793.539 201.046V192.364H797.321V200.371C797.327 201.176 797.543 201.813 797.969 202.28C798.395 202.748 798.966 202.982 799.682 202.982C800.138 202.982 800.564 202.878 800.961 202.671C801.357 202.458 801.677 202.144 801.92 201.73C802.168 201.315 802.29 200.804 802.284 200.194ZM812.448 198.116V206H808.666V192.364H812.27V194.77H812.43C812.732 193.976 813.238 193.349 813.948 192.887C814.658 192.42 815.519 192.186 816.531 192.186C817.478 192.186 818.304 192.393 819.008 192.808C819.713 193.222 820.26 193.814 820.651 194.583C821.041 195.347 821.237 196.258 821.237 197.317V206H817.455V197.992C817.461 197.158 817.248 196.507 816.816 196.039C816.383 195.566 815.789 195.329 815.031 195.329C814.522 195.329 814.072 195.438 813.682 195.657C813.297 195.876 812.995 196.196 812.776 196.616C812.563 197.03 812.454 197.531 812.448 198.116ZM831.046 192.364V195.205H822.834V192.364H831.046ZM824.698 189.097H828.48V201.81C828.48 202.159 828.533 202.431 828.64 202.626C828.746 202.816 828.894 202.949 829.084 203.026C829.279 203.103 829.504 203.141 829.758 203.141C829.936 203.141 830.113 203.127 830.291 203.097C830.469 203.061 830.605 203.035 830.699 203.017L831.294 205.831C831.105 205.891 830.838 205.959 830.495 206.036C830.152 206.118 829.735 206.169 829.243 206.186C828.332 206.222 827.533 206.101 826.846 205.822C826.166 205.544 825.636 205.112 825.257 204.526C824.878 203.94 824.692 203.201 824.698 202.307V189.097Z" fill="white"/>
<rect x="521" y="285" width="403" height="54" rx="10" fill="white"/>
<g filter="url(#filter1_d_2327_14)">
<rect x="521" y="285" width="403" height="54" rx="10" fill="white"/>
<rect x="521.5" y="285.5" width="402" height="53" rx="9.5" stroke="#BDBDBD"/>
</g>
<rect x="521" y="391" width="403" height="54" rx="10" fill="white"/>
<g filter="url(#filter2_d_2327_14)">
<rect x="521" y="391" width="403" height="54" rx="10" fill="white"/>
<rect x="521.5" y="391.5" width="402" height="53" rx="9.5" stroke="#BDBDBD"/>
</g>
<rect x="521" y="495" width="403" height="54" rx="10" fill="white"/>
<g filter="url(#filter3_d_2327_14)">
<rect x="521" y="495" width="403" height="54" rx="10" fill="white"/>
<rect x="521.5" y="495.5" width="402" height="53" rx="9.5" stroke="#BDBDBD"/>
</g>
<rect x="517" y="602" width="403" height="54" rx="10" fill="white"/>
<g filter="url(#filter4_d_2327_14)">
<rect x="517" y="602" width="403" height="54" rx="10" fill="white"/>
<rect x="517.5" y="602.5" width="402" height="53" rx="9.5" stroke="#BDBDBD"/>
</g>
<rect x="724" y="694" width="200" height="52" rx="10" fill="#B5B1B1"/>
<rect x="723.5" y="693.5" width="201" height="53" rx="10.5" fill="#35393D" stroke="#2473CF"/>
<path d="M800.505 717H798.744C798.64 716.493 798.458 716.048 798.197 715.665C797.942 715.281 797.629 714.959 797.26 714.699C796.895 714.434 796.49 714.235 796.045 714.102C795.6 713.97 795.136 713.903 794.653 713.903C793.772 713.903 792.975 714.126 792.26 714.571C791.549 715.016 790.984 715.672 790.562 716.538C790.146 717.405 789.937 718.468 789.937 719.727C789.937 720.987 790.146 722.05 790.562 722.916C790.984 723.783 791.549 724.438 792.26 724.884C792.975 725.329 793.772 725.551 794.653 725.551C795.136 725.551 795.6 725.485 796.045 725.352C796.49 725.22 796.895 725.023 797.26 724.763C797.629 724.498 797.942 724.173 798.197 723.79C798.458 723.402 798.64 722.956 798.744 722.455H800.505C800.373 723.198 800.131 723.863 799.781 724.45C799.431 725.037 798.995 725.537 798.474 725.949C797.953 726.356 797.369 726.666 796.72 726.879C796.076 727.092 795.387 727.199 794.653 727.199C793.413 727.199 792.309 726.896 791.344 726.29C790.378 725.684 789.618 724.822 789.064 723.705C788.51 722.587 788.233 721.261 788.233 719.727C788.233 718.193 788.51 716.867 789.064 715.75C789.618 714.633 790.378 713.771 791.344 713.165C792.309 712.559 793.413 712.256 794.653 712.256C795.387 712.256 796.076 712.362 796.72 712.575C797.369 712.788 797.953 713.101 798.474 713.513C798.995 713.92 799.431 714.417 799.781 715.004C800.131 715.587 800.373 716.252 800.505 717ZM807.216 727.227C806.231 727.227 805.367 726.993 804.624 726.524C803.885 726.055 803.308 725.4 802.891 724.557C802.479 723.714 802.273 722.729 802.273 721.602C802.273 720.466 802.479 719.474 802.891 718.626C803.308 717.779 803.885 717.121 804.624 716.652C805.367 716.183 806.231 715.949 807.216 715.949C808.201 715.949 809.063 716.183 809.801 716.652C810.545 717.121 811.122 717.779 811.534 718.626C811.951 719.474 812.159 720.466 812.159 721.602C812.159 722.729 811.951 723.714 811.534 724.557C811.122 725.4 810.545 726.055 809.801 726.524C809.063 726.993 808.201 727.227 807.216 727.227ZM807.216 725.722C807.964 725.722 808.58 725.53 809.063 725.146C809.546 724.763 809.903 724.259 810.135 723.634C810.367 723.009 810.483 722.331 810.483 721.602C810.483 720.873 810.367 720.194 810.135 719.564C809.903 718.934 809.546 718.425 809.063 718.037C808.58 717.649 807.964 717.455 807.216 717.455C806.468 717.455 805.853 717.649 805.37 718.037C804.887 718.425 804.529 718.934 804.297 719.564C804.065 720.194 803.949 720.873 803.949 721.602C803.949 722.331 804.065 723.009 804.297 723.634C804.529 724.259 804.887 724.763 805.37 725.146C805.853 725.53 806.468 725.722 807.216 725.722ZM816.054 720.438V727H814.378V716.091H815.997V717.795H816.139C816.395 717.241 816.783 716.796 817.304 716.46C817.825 716.119 818.497 715.949 819.321 715.949C820.06 715.949 820.706 716.1 821.26 716.403C821.814 716.702 822.245 717.156 822.553 717.767C822.86 718.373 823.014 719.14 823.014 720.068V727H821.338V720.182C821.338 719.325 821.116 718.657 820.671 718.179C820.226 717.696 819.615 717.455 818.838 717.455C818.303 717.455 817.825 717.571 817.404 717.803C816.987 718.035 816.658 718.373 816.416 718.818C816.175 719.263 816.054 719.803 816.054 720.438ZM830.595 716.091V717.511H824.714V716.091H830.595ZM826.476 727V714.585C826.476 713.96 826.623 713.439 826.916 713.023C827.21 712.606 827.591 712.294 828.06 712.085C828.528 711.877 829.023 711.773 829.544 711.773C829.956 711.773 830.292 711.806 830.553 711.872C830.813 711.938 831.007 712 831.135 712.057L830.652 713.506C830.567 713.477 830.448 713.442 830.297 713.399C830.15 713.357 829.956 713.335 829.714 713.335C829.161 713.335 828.76 713.475 828.514 713.754C828.273 714.034 828.152 714.443 828.152 714.983V727H826.476ZM832.604 727V716.091H834.28V727H832.604ZM833.457 714.273C833.13 714.273 832.848 714.161 832.611 713.939C832.379 713.716 832.263 713.449 832.263 713.136C832.263 712.824 832.379 712.556 832.611 712.334C832.848 712.111 833.13 712 833.457 712C833.783 712 834.063 712.111 834.295 712.334C834.531 712.556 834.65 712.824 834.65 713.136C834.65 713.449 834.531 713.716 834.295 713.939C834.063 714.161 833.783 714.273 833.457 714.273ZM837.01 727V716.091H838.63V717.739H838.743C838.942 717.199 839.302 716.761 839.823 716.425C840.344 716.089 840.931 715.92 841.584 715.92C841.707 715.92 841.861 715.923 842.046 715.928C842.231 715.932 842.37 715.939 842.465 715.949V717.653C842.408 717.639 842.278 717.618 842.074 717.589C841.875 717.556 841.665 717.54 841.442 717.54C840.912 717.54 840.438 717.651 840.022 717.874C839.61 718.091 839.283 718.394 839.042 718.783C838.805 719.166 838.686 719.604 838.686 720.097V727H837.01ZM844.112 727V716.091H845.731V717.795H845.873C846.1 717.213 846.467 716.761 846.974 716.439C847.481 716.112 848.089 715.949 848.799 715.949C849.519 715.949 850.118 716.112 850.596 716.439C851.079 716.761 851.455 717.213 851.725 717.795H851.839C852.118 717.232 852.537 716.785 853.096 716.453C853.655 716.117 854.325 715.949 855.106 715.949C856.081 715.949 856.879 716.254 857.5 716.865C858.12 717.471 858.43 718.416 858.43 719.699V727H856.754V719.699C856.754 718.894 856.534 718.319 856.093 717.973C855.653 717.627 855.134 717.455 854.538 717.455C853.771 717.455 853.177 717.687 852.755 718.151C852.334 718.61 852.123 719.192 852.123 719.898V727H850.419V719.528C850.419 718.908 850.217 718.409 849.815 718.03C849.412 717.646 848.894 717.455 848.259 717.455C847.824 717.455 847.417 717.571 847.038 717.803C846.664 718.035 846.361 718.357 846.129 718.768C845.902 719.176 845.788 719.647 845.788 720.182V727H844.112Z" fill="white"/>
</g>
<defs>
<filter id="filter0_d_2327_14" x="383" y="130" width="682" height="720" filterUnits="userSpaceOnUse" color-interpolation-filters="sRGB">
<feFlood flood-opacity="0" result="BackgroundImageFix"/>
<feColorMatrix in="SourceAlpha" type="matrix" values="0 0 0 0 0 0 0 0 0 0 0 0 0 0 0 0 0 0 127 0" result="hardAlpha"/>
<feOffset dx="4" dy="8"/>
<feGaussianBlur stdDeviation="2"/>
<feComposite in2="hardAlpha" operator="out"/>
<feColorMatrix type="matrix" values="0 0 0 0 0 0 0 0 0 0 0 0 0 0 0 0 0 0 0.25 0"/>
<feBlend mode="normal" in2="BackgroundImageFix" result="effect1_dropShadow_2327_14"/>
<feBlend mode="normal" in="SourceGraphic" in2="effect1_dropShadow_2327_14" result="shape"/>
</filter>
<filter id="filter1_d_2327_14" x="517" y="285" width="411" height="62" filterUnits="userSpaceOnUse" color-interpolation-filters="sRGB">
<feFlood flood-opacity="0" result="BackgroundImageFix"/>
<feColorMatrix in="SourceAlpha" type="matrix" values="0 0 0 0 0 0 0 0 0 0 0 0 0 0 0 0 0 0 127 0" result="hardAlpha"/>
<feOffset dy="4"/>
<feGaussianBlur stdDeviation="2"/>
<feComposite in2="hardAlpha" operator="out"/>
<feColorMatrix type="matrix" values="0 0 0 0 0 0 0 0 0 0 0 0 0 0 0 0 0 0 0.25 0"/>
<feBlend mode="normal" in2="BackgroundImageFix" result="effect1_dropShadow_2327_14"/>
<feBlend mode="normal" in="SourceGraphic" in2="effect1_dropShadow_2327_14" result="shape"/>
</filter>
<filter id="filter2_d_2327_14" x="517" y="391" width="411" height="62" filterUnits="userSpaceOnUse" color-interpolation-filters="sRGB">
<feFlood flood-opacity="0" result="BackgroundImageFix"/>
<feColorMatrix in="SourceAlpha" type="matrix" values="0 0 0 0 0 0 0 0 0 0 0 0 0 0 0 0 0 0 127 0" result="hardAlpha"/>
<feOffset dy="4"/>
<feGaussianBlur stdDeviation="2"/>
<feComposite in2="hardAlpha" operator="out"/>
<feColorMatrix type="matrix" values="0 0 0 0 0 0 0 0 0 0 0 0 0 0 0 0 0 0 0.25 0"/>
<feBlend mode="normal" in2="BackgroundImageFix" result="effect1_dropShadow_2327_14"/>
<feBlend mode="normal" in="SourceGraphic" in2="effect1_dropShadow_2327_14" result="shape"/>
</filter>
<filter id="filter3_d_2327_14" x="517" y="495" width="411" height="62" filterUnits="userSpaceOnUse" color-interpolation-filters="sRGB">
<feFlood flood-opacity="0" result="BackgroundImageFix"/>
<feColorMatrix in="SourceAlpha" type="matrix" values="0 0 0 0 0 0 0 0 0 0 0 0 0 0 0 0 0 0 127 0" result="hardAlpha"/>
<feOffset dy="4"/>
<feGaussianBlur stdDeviation="2"/>
<feComposite in2="hardAlpha" operator="out"/>
<feColorMatrix type="matrix" values="0 0 0 0 0 0 0 0 0 0 0 0 0 0 0 0 0 0 0.25 0"/>
<feBlend mode="normal" in2="BackgroundImageFix" result="effect1_dropShadow_2327_14"/>
<feBlend mode="normal" in="SourceGraphic" in2="effect1_dropShadow_2327_14" result="shape"/>
</filter>
<filter id="filter4_d_2327_14" x="513" y="602" width="411" height="62" filterUnits="userSpaceOnUse" color-interpolation-filters="sRGB">
<feFlood flood-opacity="0" result="BackgroundImageFix"/>
<feColorMatrix in="SourceAlpha" type="matrix" values="0 0 0 0 0 0 0 0 0 0 0 0 0 0 0 0 0 0 127 0" result="hardAlpha"/>
<feOffset dy="4"/>
<feGaussianBlur stdDeviation="2"/>
<feComposite in2="hardAlpha" operator="out"/>
<feColorMatrix type="matrix" values="0 0 0 0 0 0 0 0 0 0 0 0 0 0 0 0 0 0 0.25 0"/>
<feBlend mode="normal" in2="BackgroundImageFix" result="effect1_dropShadow_2327_14"/>
<feBlend mode="normal" in="SourceGraphic" in2="effect1_dropShadow_2327_14" result="shape"/>
</filter>
<linearGradient id="paint0_linear_2327_14" x1="720" y1="0" x2="720" y2="1024" gradientUnits="userSpaceOnUse">
<stop stop-color="#2473CF"/>
<stop offset="1" stop-color="#D9D9D9" stop-opacity="0"/>
</linearGradient>
<clipPath id="clip0_2327_14">
<rect width="1440" height="1024" fill="white"/>
</clipPath>
</defs>
</svg>
